<svg id="Capa_1" data-name="Capa 1" xmlns="http://www.w3.org/2000/svg" viewBox="0 0 32.58 31.77"><defs><style>.cls-1{fill:#fff;}</style></defs><title>github</title><path class="cls-1" d="M16.77.06a16.29,16.29,0,0,0-5.15,31.75c.81.15,1.11-.36,1.11-.79s0-1.41,0-2.77c-4.53,1-5.49-2.18-5.49-2.18a4.36,4.36,0,0,0-1.81-2.39c-1.48-1,.12-1,.12-1A3.43,3.43,0,0,1,8,24.37a3.48,3.48,0,0,0,4.74,1.36,3.46,3.46,0,0,1,1-2.18c-3.62-.41-7.42-1.81-7.42-8a6.3,6.3,0,0,1,1.67-4.37,5.94,5.94,0,0,1,.16-4.31s1.37-.44,4.48,1.67a15.41,15.41,0,0,1,8.16,0C24,6.38,25.32,6.82,25.32,6.82a5.91,5.91,0,0,1,.17,4.31,6.3,6.3,0,0,1,1.67,4.37c0,6.26-3.81,7.63-7.44,8a3.85,3.85,0,0,1,1.11,3c0,2.18,0,3.94,0,4.47s.29.94,1.12.78A16.29,16.29,0,0,0,16.77.06Z" transform="translate(-0.48 -0.06)"/></svg>