<svg xmlns="http://www.w3.org/2000/svg" xmlns:xlink="http://www.w3.org/1999/xlink" viewBox="0 0 66 88.7"><defs><style>.cls-1{isolation:isolate;}.cls-2{fill:#e3c5af;}.cls-10,.cls-3{fill:#efd2b7;}.cls-4,.cls-8{fill:#e6b18e;}.cls-4,.cls-5,.cls-7{opacity:0.4;}.cls-4,.cls-7{mix-blend-mode:multiply;}.cls-10,.cls-5,.cls-6{mix-blend-mode:screen;}.cls-5{fill:url(#linear-gradient);}.cls-6{fill:#d49195;opacity:0.7;}.cls-9{fill:#ca7d5c;}.cls-10{opacity:0.8;}</style><linearGradient id="linear-gradient" x1="32.85" y1="106.93" x2="46.8" y2="106.93" gradientUnits="userSpaceOnUse"><stop offset="0" stop-color="#efc4a4"/><stop offset="1" stop-color="#e6ad99"/></linearGradient></defs><title>paper</title><g class="cls-1"><g id="Capa_1" data-name="Capa 1"><path class="cls-2" d="M33.89,95.67,31.7,109.4s-.14,2.77,3.51,3.65,12.41,1,18.11-.88c0,0,1.75-1,1.75-2,0,0-.88-14.9-1.32-14.75S33.89,95.67,33.89,95.67Z" transform="translate(-3 -25.27)"/><path class="cls-3" d="M33.89,95.67,31.7,109.4s-.14,2.77,3.51,3.65,12.41,1,18.11-.88c0,0,1.75-1,1.75-2,0,0-.88-14.9-1.32-14.75S33.89,95.67,33.89,95.67Z" transform="translate(-3 -25.27)"/><path class="cls-4" d="M53.75,95.38c-.3.1-10,.2-15.68.25a7.19,7.19,0,0,0,3.33,4.12c2.1,1.16,4.45,1.3,6.75,1.78,4,.83,3.28-10.92,3.46,8.81a3.7,3.7,0,0,1-1.31,2.6,25.6,25.6,0,0,0,3-.77s1.75-1,1.75-2C55.07,110.13,54.19,95.23,53.75,95.38Z" transform="translate(-3 -25.27)"/><path class="cls-5" d="M43.37,102.73c2.34,0,3,2.53,3,2.53s.78-3.41.2,2.63-10.42,4.28-10.42,4.28a3.71,3.71,0,0,1-3.31-3.89l1.46-4s0-3,1.51-2.83S43.37,102.73,43.37,102.73Z" transform="translate(-3 -25.27)"/><path class="cls-6" d="M35.1,103.46s-1.61,1.7-1.7,5.4C33.4,108.86,35.59,112.9,35.1,103.46Z" transform="translate(-3 -25.27)"/><path class="cls-3" d="M28.81,38.52c-1.65-8.47-6.09-10-8.39-7.52-2.82,3.06,1.63,15.59,2.94,24.41C24.59,63.7,25,70.79,25,70.79l10.22-4.72S30.74,48.49,28.81,38.52Z" transform="translate(-3 -25.27)"/><path class="cls-3" d="M45.63,66.78s-.5-8-.85-16.33.14-23.07-2.72-24.5-6,.84-6,8c0,9-.1,30-.1,30Z" transform="translate(-3 -25.27)"/><path class="cls-3" d="M57.42,29.14c-2.6-1.87-6.05-.14-7.18,7-1.4,8.86-4.9,29.55-4.9,29.55L54.76,70s.44-7.92,1.43-16.22S60,31,57.42,29.14Z" transform="translate(-3 -25.27)"/><path class="cls-3" d="M68,39.31c-2.22-1.91-5.52-.61-7.12,5.79-2,8-6.86,26.62-6.86,26.62l8.26,4.71s1-7.2,2.61-14.71S70.24,41.23,68,39.31Z" transform="translate(-3 -25.27)"/><path class="cls-3" d="M62,67.43a11.79,11.79,0,0,0-6.72-4.13c-.22-1.59-1.77-2.7-4.42-3.21a6.39,6.39,0,0,0-4.63.92c-1.95,1.65-2.41-4.27-5.23-4.39-1.65-.06-3.57,2.2-4.88,4.1a5.52,5.52,0,0,1,0,.71c-.16,1.06-.44,1-1,1.22-.83.32-1.13-.62-1.61-1.06a4.47,4.47,0,0,0-2.24-1c-2.18-.28-5.8,1.73-6.28,10.36s1.36,18.24,7.43,25.12,15.84,4.54,15.84,4.54c10.3-1.68,12.78-10,13.51-14.22S64.51,70.83,62,67.43Z" transform="translate(-3 -25.27)"/><path class="cls-3" d="M34.86,77.31a6.57,6.57,0,0,0-.69-1c-2-2.4-5.37-2.62-8-4.09-4.12-2.31-6.2-8-9.79-10.93-3-2.45-12.12-4-13.08,1.38-.17.94,1.07,1.54,1.72,1.93,9.81,5.92,14.39,17.91,21.3,26.61,1.84,2.32,7,6.62,9.34,6.13,3.52-.72.41-9.44.46-12.07S36.22,79.65,34.86,77.31Z" transform="translate(-3 -25.27)"/><g class="cls-7"><path class="cls-8" d="M68,39.31c-2.22-1.91-5.52-.61-7.12,5.79-1.13,4.5-3.17,12.4-4.74,18.43a7.72,7.72,0,0,0-.91-.23v0c.23-2.76.54-6.11.95-9.53,1-8.3,3.84-22.75,1.23-24.61s-6.05-.14-7.18,7c-1,6.24-3,18.36-4.13,25a.85.85,0,0,1-.8.19c-.16-3-.36-6.85-.53-10.81-.36-8.36.14-23.07-2.72-24.5s-6,.84-6,8S36,56,36,61.64c-.16.83-.44.8-1,1a.72.72,0,0,1-.66,0C33,57,30.21,45.75,28.81,38.52c-1.65-8.47-6.09-10-8.39-7.52-2.82,3.06,1.63,15.59,2.94,24.41C24.34,62,24.81,67.91,25,70c0,.3-.05.61-.07.94,0,.14,0,.28,0,.43-3.3-2.66-5.3-7.44-8.49-10-3-2.45-12.12-4-13.08,1.38-.17.94,1.07,1.54,1.72,1.93,9.81,5.92,14.39,17.91,21.3,26.61a24.13,24.13,0,0,0,6.55,5.42c6.09,6.14,15.28,3.93,15.28,3.93,10.3-1.68,12.78-10,13.51-14.22.54-3.15,1.85-10.24,1.43-15.05.45-2.67,1.07-6.1,1.8-9.6C66.47,54.21,70.24,41.23,68,39.31ZM48.5,54.39c.54-3.88,1.44-7.69,2.07-11.56.27-1.62.47-3.3.74-5,.16-2.36.44-4.87,1.83-6.66,1.53-2,3.51-.91,3.22,1.47-.5,4-1.4,8-2.17,11.9s-.86,8.15-2.28,11.85c-.27.69-1.81,4.7-3.19,3.41C47.52,58.71,48.3,55.77,48.5,54.39Zm-11.61-1c.23-5.58.1-11.17.22-16.75a39.72,39.72,0,0,1,.25-5.15c0-1.94.51-4,2.35-4.39,2-.41,2.11,3.49,2.13,4.59.07,3,.07,5.91.18,8.87a95,95,0,0,1-.12,13.29,16.11,16.11,0,0,1-1.26,5.31c-.61,1.25-1.88,2.19-3,.83C36.31,58.44,36.82,55.26,36.89,53.4ZM24.54,57.78c-.27-2.21-.68-4.41-1-6.6-.54-3.35-1.4-6.6-2.08-9.91a16.7,16.7,0,0,1-.9-4.94c0-1.21,0-3.44,1.25-4.16l.1,0a.24.24,0,0,1,.13-.07,2.06,2.06,0,0,1,2.36.8C25.44,34,25.78,36,26.07,37.48c.37,2,.83,3.85,1.34,5.77q1.44,5.39,2.74,10.82c.58,2.47,2.49,9.4-1.39,10.29-2.2.51-3.34-1-3.75-3C24.76,60.19,24.7,59,24.54,57.78ZM59,78.73c-.07.47-.13.93-.19,1.4-.34,7.7-1.63,16.11-9.62,18.82-4,1.35-9.09,1.43-12.76-.92a43.31,43.31,0,0,1-6.58-5.83q-.87-.84-1.68-1.74C23.54,86.33,20.57,80.75,17,75.73c-2.37-3.3-4.79-6.72-8.11-9.14-.42-.31-.92-.66-1.4-1a7.08,7.08,0,0,1-1.48-1c-.69-.63-1.74-1.92-1-2.87,1.46-1.89,5.61-1,7.38-.14,4,2,6.33,5.85,8.87,9.27,3.3,4.45,7.55,7.37,12.17,10.3l.75.47c1.81.94,3.62,1.85,5.34,2.88,2.34,1.4,4.83,3,6.16,5.39a12.19,12.19,0,0,0-3.34-6.76c-2.7-2.76-6.12-4.5-9.24-6.7-2.31-1.64-4.16-3.62-3.75-6.66a6.51,6.51,0,0,1,4.91-5.11,29.43,29.43,0,0,1,12.07-.77c3.24.39,6.71,1,9.62,2.55C59.76,68.5,59.26,76.69,59,78.73Zm4-22.85a32.1,32.1,0,0,1-2,5.54c-.3.64-.91,2-1.75,2.08-2.61.37-1-3.71-.69-4.73,1-3.86,2-7.7,3-11.55.07-.26.13-.54.2-.82a35.64,35.64,0,0,1,1-4.22,3,3,0,0,1,1.82-2.24,1.55,1.55,0,0,1,1.63.46c1,1.46-.16,3.94-.68,5.37C64.38,49.05,63.86,52.52,63,55.88Z" transform="translate(-3 -25.27)"/></g><g class="cls-7"><path class="cls-8" d="M68,39.31a3.11,3.11,0,0,0-1.93-.8c2,.59,1.73,3.71,1.3,5.27-1.12,4.06-2.27,8.12-3.31,12.2-.54,2.12-1.07,4.26-1.53,6.4-.31,1.41-.33,3.06-1,4.34a.29.29,0,0,1-.46.06c-1.55-1.31-3-2.69-4.88-3.36l0,.11a7.72,7.72,0,0,0-.91-.23v0c.23-2.76.54-6.11.95-9.53,1-8.3,3.84-22.75,1.23-24.61a3.21,3.21,0,0,0-4.22.2,2.92,2.92,0,0,1,3,0c2.2,1.39,1.32,5.4.92,7.42-.74,3.79-1.27,7.64-1.7,11.47-.28,2.51-.37,5-.65,7.55-.18,1.63-.4,3.59-1.48,4.92-1.48,1.83-3.87.84-5.9.94a2,2,0,0,1-1.62-.42.75.75,0,0,1-.49,0c-.16-3-.36-6.85-.53-10.81-.36-8.36.14-23.07-2.72-24.5a3.19,3.19,0,0,0-3.53.29,2.38,2.38,0,0,1,2.84.31c1.34,1.3,1.45,3.41,1.5,5.16.11,3.15.3,6.3.39,9.45.11,3.77.25,7.53.35,11.3A38,38,0,0,1,43.45,58a3.86,3.86,0,0,1-1.05,2.61c-1.33,1.12-3.63,1.57-5.33,1.82a2.06,2.06,0,0,1-1.3-.19c-.17.24-.41.28-.75.41a.72.72,0,0,1-.66,0C33,57,30.21,45.75,28.81,38.52c-1.65-8.47-6.09-10-8.39-7.52a3.17,3.17,0,0,0-.68,1.36,2.93,2.93,0,0,1,2.07-1.75c3.92-.62,4.64,5.42,5.36,8,1.75,6.16,3,12.42,4.52,18.64.36,1.48.79,3,1.07,4.46a2.29,2.29,0,0,1-.42,1.84,10.67,10.67,0,0,1-1.81,1.56c.53-.22,1.06-.41,1.58-.62a27.72,27.72,0,0,1,9.63-1.75A52.3,52.3,0,0,1,52,63.76a15.33,15.33,0,0,1,2.35.61c7,1.92,6.88,10.76,6.48,16.67-.28,4.17-.6,8.48-2.17,12.39a12.05,12.05,0,0,1-1.34,2.45,18.75,18.75,0,0,0,4.33-9.51c.54-3.15,1.85-10.24,1.43-15.05.45-2.67,1.07-6.1,1.8-9.6C66.47,54.21,70.24,41.23,68,39.31Z" transform="translate(-3 -25.27)"/><path class="cls-8" d="M32.22,77.43a15.72,15.72,0,0,1-5.9-6.54,36.93,36.93,0,0,1-1.82-6.25c.24,2.44.39,4.34.46,5.35,0,.3-.05.61-.07.94,0,.14,0,.28,0,.43-3.3-2.66-5.3-7.44-8.49-10-3-2.44-12-4-13.06,1.29a3,3,0,0,1,.53-1c1.15-1.49,3.44-2,5.22-2,6,.18,10,6.2,13.25,10.53,2.25,3,4.56,6.27,7.77,8.35s7,3.23,10.22,5.42a19.23,19.23,0,0,1,4,3.47C42,82.79,36.4,80.2,32.22,77.43Z" transform="translate(-3 -25.27)"/><path class="cls-8" d="M33,80.85l.41.26.75.47c1.81.94,3.62,1.85,5.34,2.88a29.27,29.27,0,0,1,3.44,2.33,20.57,20.57,0,0,0-4.59-3.37C36.61,82.47,34.77,81.72,33,80.85Z" transform="translate(-3 -25.27)"/></g><path class="cls-9" d="M40,82.63a81.43,81.43,0,0,0-7.22-4,17,17,0,0,1-3.45-2.3,10.15,10.15,0,0,1-2.88-3.07s-.06,0-.05,0c.69,1.87,2.8,3.67,4.41,4.76,2.1,1.41,4.54,2.43,6.74,3.68a18.2,18.2,0,0,1,6.19,4.91c1.54,2.11,2.82,5,2.22,7.59,0,0,.07,0,.08,0C47.35,89.75,43.52,84.89,40,82.63Z" transform="translate(-3 -25.27)"/><path class="cls-10" d="M37.26,97c-6.68-3.88-11.53-10.21-15.68-16.58-1.06-1.63-2.07-3.28-3.25-4.83-.56-.75-1-1.59-1.53-2.35s-1.37-1.63-2-2.47a24.8,24.8,0,0,0-3.84-4A18.06,18.06,0,0,0,6.79,63.9s-.07,0,0,.06a27.92,27.92,0,0,1,4.12,3.57,32.67,32.67,0,0,1,3.77,4.12C17,74.8,19.22,78,21.38,81.33c4,6.15,9.26,12.27,15.8,15.8C37.21,97.14,37.3,97.06,37.26,97Z" transform="translate(-3 -25.27)"/><path class="cls-10" d="M24.59,52.09c-.34-2.15-.77-4.28-1.25-6.41s-.83-4.09-1.22-6.14a25.59,25.59,0,0,1-.72-6.15s-.06,0-.06,0c-.55,4,.67,8.14,1.46,12,.43,2.11.9,4.22,1.34,6.33.21,1,.46,2,.65,3.06a20.38,20.38,0,0,0,.56,2.69s.08,0,.08-.05C25,55.73,24.87,53.87,24.59,52.09Z" transform="translate(-3 -25.27)"/><path class="cls-10" d="M38.86,28c-1.15,3.49-1.19,7.11-1.23,10.76-.05,4.18,0,8.39.26,12.55,0,0,.11,0,.11-.07,0-3.87,0-7.73,0-11.6A58.56,58.56,0,0,1,38.94,28S38.86,28,38.86,28Z" transform="translate(-3 -25.27)"/><path class="cls-10" d="M53.25,32.25a32.06,32.06,0,0,0-1.66,7.25c-.48,2.81-.83,5.64-1.21,8.46,0,.07.1,0,.11-.05.46-2.69,1-5.36,1.46-8s.55-5.18,1.37-7.64C53.33,32.19,53.26,32.23,53.25,32.25Z" transform="translate(-3 -25.27)"/><path class="cls-10" d="M64.65,40.41c-2.11,2.46-2.75,6.2-3.4,9.31,0,.06.11,0,.12-.06.45-1.59,1-3.11,1.52-4.66s.84-3.2,1.81-4.58C64.73,40.37,64.67,40.39,64.65,40.41Z" transform="translate(-3 -25.27)"/><path class="cls-10" d="M53.81,65.88c-4.89-1.71-10.45-1.68-15.55-1.32,0,0-.07,0,0,0a84.75,84.75,0,0,1,15.41,1.46C53.7,66.08,53.9,65.91,53.81,65.88Z" transform="translate(-3 -25.27)"/><path class="cls-9" d="M56.86,63.7A37.23,37.23,0,0,0,45.4,61.52a52.12,52.12,0,0,0-7.38.53,53.06,53.06,0,0,0-5.35,1.18s-.05,0,0,0c1.74-.32,3.43-.79,5.22-1a66.77,66.77,0,0,1,6.78-.49c4.41-.08,9.37,1.42,13.56,2.75C57.77,64.23,57.32,64,56.86,63.7Z" transform="translate(-3 -25.27)"/><path class="cls-10" d="M57.4,88s-1.95,9.25-10.51,10.71C46.89,98.71,53.6,97.06,57.4,88Z" transform="translate(-3 -25.27)"/><path class="cls-9" d="M42.14,114h0a32.8,32.8,0,0,1-7-.63c-3.84-.92-3.73-3.92-3.73-4L33.47,97.6c-.28-.25-.53-.48-.76-.71a24.59,24.59,0,0,1-6.61-5.47,103.5,103.5,0,0,1-6.31-9.28C15.68,75.6,11.43,68.83,4.88,64.87l-.22-.12c-.73-.42-1.82-1.06-1.64-2.1.44-2.46,2.61-3.88,6-3.88a13.35,13.35,0,0,1,7.59,2.32,25.11,25.11,0,0,1,4.2,5,28,28,0,0,0,3.83,4.67l.06-.79c-.16-2.13-.62-7.92-1.6-14.51-.4-2.73-1.12-5.85-1.81-8.87-1.6-7-3.1-13.55-1.06-15.77a3.41,3.41,0,0,1,2.56-1.18c2.23,0,5.07,2.32,6.34,8.83,1.37,7.08,4,18,5.51,23.95a.53.53,0,0,0,.3,0l.22-.08c.37-.13.47-.16.58-.72,0-5.9.1-20.53.08-27.61,0-4.49,1.17-6.63,2.17-7.63a3.54,3.54,0,0,1,4.23-.65c2.24,1.12,2.54,8.48,2.73,18.77,0,2.16.07,4.21.15,6,.17,4,.37,7.92.52,10.56a.86.86,0,0,0,.26-.1C47,54.24,49,42.28,50,36.05c.78-4.95,2.82-7.9,5.45-7.9a3.76,3.76,0,0,1,2.18.75c2,1.46,1.16,8.77-.3,19C57,50,56.69,52,56.48,53.78c-.34,2.86-.65,6-.93,9.28l.4.11C57.47,57.28,59.49,49.46,60.6,45c1.08-4.26,3.09-6.81,5.39-6.81a3.4,3.4,0,0,1,2.22.88c1.75,1.51.35,8.13-1.81,17.33-.45,1.94-.88,3.77-1.21,5.36-.62,2.94-1.22,6.15-1.8,9.55.4,4.55-.72,11-1.32,14.47l-.11.62c-1,5.61-3.6,9.85-7.61,12.28a112.13,112.13,0,0,0,1,11.42c0,1.16-1.7,2.19-1.9,2.3l-.05,0A38.66,38.66,0,0,1,42.14,114ZM9,59.36c-1.79,0-4.87.44-5.39,3.39-.12.64.73,1.13,1.35,1.49l.23.13c6.67,4,11,10.86,15.11,17.46a103,103,0,0,0,6.27,9.23A23.93,23.93,0,0,0,33,96.4l.07,0a11.79,11.79,0,0,0,.87.8.28.28,0,0,1,.1.24L32,109.42c0,.1-.07,2.54,3.29,3.34a32,32,0,0,0,6.86.62A37.77,37.77,0,0,0,53.2,111.9c.46-.27,1.58-1.09,1.58-1.77,0-.21-.58-3.34-1-11.58a.31.31,0,0,1,.15-.27c4-2.31,6.54-6.45,7.48-12l.11-.62c.6-3.45,1.71-9.88,1.32-14.36v-.07c.58-3.42,1.19-6.66,1.8-9.61.34-1.6.77-3.43,1.22-5.37,1.53-6.48,3.61-15.36,2-16.76A2.82,2.82,0,0,0,66,38.79c-2,0-3.82,2.39-4.82,6.38C60,49.68,58,57.69,56.44,63.6a.3.3,0,0,1-.14.19.36.36,0,0,1-.23,0c-.53-.16-.88-.23-.88-.23a.34.34,0,0,1-.24-.33c.28-3.4.6-6.6.95-9.53.21-1.77.5-3.8.81-6,1.09-7.58,2.45-17,.54-18.39a3.16,3.16,0,0,0-1.84-.64c-1.79,0-4,1.95-4.88,7.41-1,6.27-3,18.34-4.13,25a.29.29,0,0,1-.11.19,1.16,1.16,0,0,1-1.07.24.29.29,0,0,1-.2-.26c-.15-2.65-.36-6.67-.53-10.82-.08-1.77-.12-3.82-.15-6C44.2,36.8,44,27.26,41.93,26.22a2.92,2.92,0,0,0-3.56.54c-1.3,1.3-2,3.86-2,7.21,0,7.08-.06,21.71-.1,27.67-.17.89-.47,1-1,1.21l-.2.07a1,1,0,0,1-.9,0,.3.3,0,0,1-.14-.19c-1.48-5.94-4.17-17-5.56-24.12-1.2-6.17-3.85-8.36-5.76-8.36a2.85,2.85,0,0,0-2.13,1c-1.83,2-.29,8.73,1.2,15.25.69,3,1.41,6.17,1.82,8.92,1,6.6,1.45,12.41,1.6,14.6,0,.34-.05.65-.07,1v.43a.29.29,0,0,1-.17.25.29.29,0,0,1-.31,0,25.11,25.11,0,0,1-4.39-5.17,24.6,24.6,0,0,0-4.09-4.87A13,13,0,0,0,9,59.36Z" transform="translate(-3 -25.27)"/></g></g></svg>