<?xml version="1.0" encoding="utf-8"?>
<!-- Generator: Adobe Illustrator 23.0.3, SVG Export Plug-In . SVG Version: 6.00 Build 0)  -->
<svg version="1.1" id="Capa_1" xmlns="http://www.w3.org/2000/svg" xmlns:xlink="http://www.w3.org/1999/xlink" x="0px" y="0px"
	 viewBox="0 0 103.9 103.2" style="enable-background:new 0 0 103.9 103.2;" xml:space="preserve">
<style type="text/css">
	.st0{fill:#E3C5AF;}
	.st1{fill:#EFD2B7;}
	.st2{opacity:0.4;fill:#E6B18E;enable-background:new    ;}
	.st3{opacity:0.4;fill:url(#SVGID_1_);enable-background:new    ;}
	.st4{opacity:0.7;fill:#D49195;enable-background:new    ;}
	.st5{opacity:0.4;}
	.st6{fill:#E6B18E;}
	.st7{fill:#CA7D5C;}
	.st8{opacity:0.8;fill:#EFD2B7;enable-background:new    ;}
</style>
<title>paper</title>
<g>
	<g>
		<path class="st0" d="M42.9,77.6l-2.2,13.7c0,0-0.1,2.8,3.5,3.7s12.4,1,18.1-0.9c0,0,1.8-1,1.8-2c0,0-0.9-14.9-1.3-14.8
			S42.9,77.6,42.9,77.6z"/>
		<path class="st1" d="M42.9,77.6l-2.2,13.7c0,0-0.1,2.8,3.5,3.7s12.4,1,18.1-0.9c0,0,1.8-1,1.8-2c0,0-0.9-14.9-1.3-14.8
			S42.9,77.6,42.9,77.6z"/>
		<path class="st2" d="M62.8,77.3c-0.3,0.1-10,0.2-15.7,0.2c0.5,1.7,1.7,3.2,3.3,4.1c2.1,1.2,4.5,1.3,6.8,1.8
			c4,0.8,3.3-10.9,3.5,8.8c-0.1,1-0.5,1.9-1.3,2.6c1-0.2,2-0.5,3-0.8c0,0,1.7-1,1.7-2C64.1,92.1,63.2,77.2,62.8,77.3z"/>
		
			<linearGradient id="SVGID_1_" gradientUnits="userSpaceOnUse" x1="44.8791" y1="-14.1663" x2="58.8292" y2="-14.1663" gradientTransform="matrix(1 0 0 -1 -3 74.6894)">
			<stop  offset="0" style="stop-color:#EFC4A4"/>
			<stop  offset="1" style="stop-color:#E6AD99"/>
		</linearGradient>
		<path class="st3" d="M52.4,84.7c2.3,0,3,2.5,3,2.5s0.8-3.4,0.2,2.6s-10.4,4.3-10.4,4.3c-2-0.2-3.4-1.9-3.3-3.9l1.5-4
			c0,0,0-3,1.5-2.8S52.4,84.7,52.4,84.7z"/>
		<path class="st4" d="M44.1,85.4c0,0-1.6,1.7-1.7,5.4C42.4,90.8,44.6,94.8,44.1,85.4z"/>
		<path class="st1" d="M37.8,20.4c-1.6-8.5-6.1-10-8.4-7.5c-2.8,3.1,1.6,15.6,2.9,24.4c1.2,8.3,1.6,15.4,1.6,15.4L44.2,48
			C44.2,48,39.8,30.4,37.8,20.4z"/>
		<path class="st1" d="M54.7,48.7c0,0-0.5-8-0.8-16.3s0.1-23.1-2.7-24.5s-6,0.8-6,8c0,9-0.1,30-0.1,30L54.7,48.7z"/>
		<path class="st1" d="M66.4,11.1c-2.6-1.9-6-0.1-7.2,7c-1.4,8.9-4.9,29.6-4.9,29.6l9.4,4.3c0,0,0.4-7.9,1.4-16.2
			C66.2,27.4,69,12.9,66.4,11.1z"/>
		<path class="st1" d="M77,21.2c-2.2-1.9-5.5-0.6-7.1,5.8c-2,8-6.9,26.6-6.9,26.6l8.3,4.7c0,0,1-7.2,2.6-14.7S79.3,23.2,77,21.2z"/>
		<path class="st1" d="M71,49.4c-1.7-2.1-4.1-3.6-6.7-4.1c-0.2-1.6-1.8-2.7-4.4-3.2c-1.6-0.3-3.3,0-4.6,0.9c-2,1.7-2.4-4.3-5.2-4.4
			c-1.7-0.1-3.6,2.2-4.9,4.1c0,0.2,0,0.5,0,0.7c-0.2,1.1-0.4,1-1,1.2c-0.8,0.3-1.1-0.6-1.6-1.1c-0.6-0.5-1.4-0.9-2.2-1
			c-2.2-0.3-5.8,1.7-6.3,10.4s1.4,18.2,7.4,25.1s15.8,4.5,15.8,4.5c10.3-1.7,12.8-10,13.5-14.2C71.5,64.1,73.5,52.8,71,49.4z"/>
		<path class="st1" d="M43.9,59.2c-0.2-0.4-0.4-0.7-0.7-1c-2-2.4-5.4-2.6-8-4.1c-4.1-2.3-6.2-8-9.8-10.9c-3-2.5-12.1-4-13.1,1.4
			c-0.2,0.9,1.1,1.5,1.7,1.9c9.8,5.9,14.4,17.9,21.3,26.6c1.8,2.3,7,6.6,9.3,6.1c3.5-0.7,0.4-9.4,0.5-12.1S45.2,61.6,43.9,59.2z"/>
		<g class="st5">
			<path class="st6" d="M77,21.2c-2.2-1.9-5.5-0.6-7.1,5.8c-1.1,4.5-3.2,12.4-4.7,18.4c-0.3-0.1-0.6-0.2-0.9-0.2l0,0
				c0.2-2.8,0.5-6.1,1-9.5c1-8.3,3.8-22.8,1.2-24.6c-2.6-1.9-6-0.1-7.2,7c-1,6.2-3,18.4-4.1,25c-0.2,0.2-0.5,0.3-0.8,0.2
				c-0.2-3-0.4-6.8-0.5-10.8C53.4,24.1,53.9,9.4,51.1,8s-6,0.8-6,8s0,22,0,27.6c-0.2,0.8-0.4,0.8-1,1c-0.2,0.1-0.5,0.1-0.7,0
				c-1.3-5.6-4.1-16.9-5.5-24.1c-1.6-8.5-6.1-10-8.4-7.5c-2.8,3.1,1.6,15.6,2.9,24.4c1,6.6,1.5,12.5,1.6,14.6c0,0.3,0,0.6-0.1,0.9
				c0,0.1,0,0.3,0,0.4c-3.3-2.7-5.3-7.4-8.5-10c-3-2.5-12.1-4-13.1,1.4c-0.2,0.9,1.1,1.5,1.7,1.9c9.8,5.9,14.4,17.9,21.3,26.6
				c1.8,2.2,4.1,4,6.5,5.4c6.1,6.1,15.3,3.9,15.3,3.9c10.3-1.7,12.8-10,13.5-14.2c0.5-3.2,1.8-10.2,1.4-15.1
				c0.4-2.7,1.1-6.1,1.8-9.6C75.5,36.1,79.3,23.2,77,21.2z M57.5,36.3c0.5-3.9,1.4-7.7,2.1-11.6c0.3-1.6,0.5-3.3,0.7-5
				c0.2-2.4,0.4-4.9,1.8-6.7c1.5-2,3.5-0.9,3.2,1.5c-0.5,4-1.4,8-2.2,11.9s-0.9,8.1-2.3,11.8c-0.3,0.7-1.8,4.7-3.2,3.4
				C56.5,40.6,57.3,37.7,57.5,36.3z M45.9,35.3c0.2-5.6,0.1-11.2,0.2-16.7c0-1.7,0.1-3.4,0.2-5.2c0-1.9,0.5-4,2.3-4.4
				c2-0.4,2.1,3.5,2.1,4.6c0.1,3,0.1,5.9,0.2,8.9c0.3,4.4,0.2,8.9-0.1,13.3c-0.1,1.8-0.5,3.6-1.3,5.3c-0.6,1.2-1.9,2.2-3,0.8
				C45.3,40.4,45.8,37.2,45.9,35.3L45.9,35.3z M33.6,39.7c-0.3-2.2-0.7-4.4-1-6.6c-0.5-3.3-1.4-6.6-2.1-9.9
				c-0.5-1.6-0.9-3.3-0.9-4.9c0-1.2,0-3.4,1.2-4.2h0.1c0,0,0.1-0.1,0.1-0.1c0.9-0.3,1.8,0,2.4,0.8c1,1.1,1.4,3.1,1.7,4.6
				c0.4,2,0.8,3.8,1.3,5.8c1,3.6,1.9,7.2,2.7,10.8c0.6,2.5,2.5,9.4-1.4,10.3c-2.2,0.5-3.3-1-3.8-3C33.8,42.1,33.7,40.9,33.6,39.7z
				 M68,60.7c-0.1,0.5-0.1,0.9-0.2,1.4c-0.3,7.7-1.6,16.1-9.6,18.8c-4,1.3-9.1,1.4-12.8-0.9c-2.4-1.7-4.6-3.7-6.6-5.8
				c-0.6-0.6-1.1-1.1-1.7-1.7c-4.6-4.1-7.6-9.7-11.2-14.7c-2.4-3.3-4.8-6.7-8.1-9.1c-0.4-0.3-0.9-0.7-1.4-1c-0.5-0.3-1-0.6-1.5-1
				c-0.7-0.6-1.7-1.9-1-2.9c1.5-1.9,5.6-1,7.4-0.1c4,2,6.3,5.9,8.9,9.3c3.3,4.4,7.6,7.4,12.2,10.3l0.8,0.5c1.8,0.9,3.6,1.9,5.3,2.9
				c2.3,1.4,4.8,3,6.2,5.4c-0.4-2.5-1.5-4.9-3.3-6.8c-2.7-2.8-6.1-4.5-9.2-6.7c-2.3-1.6-4.2-3.6-3.8-6.7c0.5-2.5,2.4-4.5,4.9-5.1
				c3.9-1.1,8-1.4,12.1-0.8c3.2,0.4,6.7,1,9.6,2.5C68.8,50.4,68.3,58.6,68,60.7z M72,37.8c-0.5,1.9-1.2,3.8-2,5.5
				c-0.3,0.6-0.9,2-1.8,2.1c-2.6,0.4-1-3.7-0.7-4.7c1-3.9,2-7.7,3-11.5c0.1-0.3,0.1-0.5,0.2-0.8c0.2-1.4,0.6-2.8,1-4.2
				c0.2-1,0.9-1.9,1.8-2.2c0.6-0.2,1.2,0,1.6,0.5c1,1.5-0.2,3.9-0.7,5.4C73.4,31,72.9,34.4,72,37.8z"/>
		</g>
		<g class="st5">
			<path class="st6" d="M77,21.2c-0.5-0.5-1.2-0.8-1.9-0.8c2,0.6,1.7,3.7,1.3,5.3c-1.1,4.1-2.3,8.1-3.3,12.2
				c-0.5,2.1-1.1,4.3-1.5,6.4c-0.3,1.4-0.3,3.1-1,4.3c-0.1,0.1-0.3,0.2-0.4,0.1c0,0,0,0-0.1,0c-1.6-1.3-3-2.7-4.9-3.4v0.1
				c-0.3-0.1-0.6-0.2-0.9-0.2l0,0c0.2-2.8,0.5-6.1,0.9-9.5c1-8.3,3.8-22.8,1.2-24.6c-1.3-1-3.1-0.9-4.2,0.2c0.9-0.6,2.1-0.6,3,0
				c2.2,1.4,1.3,5.4,0.9,7.4c-0.7,3.8-1.3,7.6-1.7,11.5c-0.3,2.5-0.4,5-0.6,7.5c-0.2,1.6-0.4,3.6-1.5,4.9c-1.5,1.8-3.9,0.8-5.9,0.9
				c-0.6,0.1-1.2,0-1.6-0.4c-0.2,0.1-0.3,0.1-0.5,0c-0.2-3-0.4-6.8-0.5-10.8C53.5,24,54,9.3,51.1,7.9c-1.1-0.6-2.5-0.5-3.5,0.3
				c0.9-0.5,2.1-0.4,2.8,0.3c1.3,1.3,1.5,3.4,1.5,5.2c0.1,3.2,0.3,6.3,0.4,9.4c0.1,3.8,0.2,7.5,0.3,11.3c0.1,1.9,0,3.7-0.2,5.6
				c0,1-0.4,1.9-1,2.6c-1.3,1.1-3.6,1.6-5.3,1.8c-0.4,0.1-0.9,0-1.3-0.2c-0.2,0.2-0.4,0.3-0.8,0.4c-0.2,0.1-0.5,0.1-0.7,0
				c-1.4-5.7-4.2-16.9-5.6-24.1c-1.6-8.5-6.1-10-8.4-7.5c-0.3,0.4-0.6,0.9-0.7,1.4c0.4-0.9,1.1-1.5,2.1-1.8c3.9-0.6,4.6,5.4,5.4,8
				c1.8,6.2,3,12.4,4.5,18.6c0.4,1.5,0.8,3,1.1,4.5c0.1,0.6,0,1.3-0.4,1.8c-0.5,0.6-1.2,1.1-1.8,1.6c0.5-0.2,1.1-0.4,1.6-0.6
				c3.1-1.1,6.3-1.7,9.6-1.8c3.4,0,6.9,0.3,10.3,1c0.8,0.1,1.6,0.3,2.3,0.6c7,1.9,6.9,10.8,6.5,16.7c-0.3,4.2-0.6,8.5-2.2,12.4
				c-0.4,0.9-0.8,1.7-1.3,2.4c2.3-2.7,3.8-6,4.3-9.5c0.5-3.2,1.8-10.2,1.4-15.1c0.4-2.7,1.1-6.1,1.8-9.6
				C75.5,36.1,79.3,23.2,77,21.2z"/>
			<path class="st6" d="M41.2,59.4c-2.5-1.6-4.6-3.8-5.9-6.5c-0.8-2-1.4-4.1-1.8-6.2c0.2,2.4,0.4,4.3,0.5,5.3c0,0.3,0,0.6-0.1,0.9
				c0,0.1,0,0.3,0,0.4c-3.3-2.7-5.3-7.4-8.5-10c-3-2.4-12-4-13.1,1.3c0.1-0.4,0.3-0.7,0.5-1c1.2-1.5,3.4-2,5.2-2
				c6,0.2,10,6.2,13.2,10.5c2.3,3,4.6,6.3,7.8,8.3c3.2,2.1,7,3.2,10.2,5.4c1.5,1,2.8,2.1,4,3.5C51,64.7,45.4,62.1,41.2,59.4z"/>
			<path class="st6" d="M42,62.8l0.4,0.3l0.8,0.5c1.8,0.9,3.6,1.9,5.3,2.9c1.2,0.7,2.3,1.5,3.4,2.3c-1.4-1.3-2.9-2.5-4.6-3.4
				C45.6,64.4,43.8,63.6,42,62.8z"/>
		</g>
		<path class="st7" d="M49,64.6c-2.3-1.5-4.7-2.8-7.2-4c-1.2-0.6-2.4-1.4-3.5-2.3c-1.2-0.8-2.1-1.9-2.9-3.1c0,0-0.1,0,0,0
			c0.7,1.9,2.8,3.7,4.4,4.8c2.1,1.4,4.5,2.4,6.7,3.7c2.4,1.2,4.5,2.8,6.2,4.9c1.5,2.1,2.8,5,2.2,7.6c0,0,0.1,0,0.1,0
			C56.4,71.7,52.5,66.8,49,64.6z"/>
		<path class="st8" d="M46.3,78.9C39.6,75,34.8,68.7,30.6,62.3c-1.1-1.6-2.1-3.3-3.2-4.8c-0.6-0.8-1-1.6-1.5-2.3s-1.4-1.6-2-2.5
			c-1.1-1.5-2.4-2.8-3.8-4c-1.2-1.1-2.7-2.1-4.2-2.9c0,0-0.1,0,0,0.1c1.5,1.1,2.9,2.2,4.1,3.6c1.4,1.3,2.6,2.6,3.8,4.1
			c2.3,3.1,4.5,6.3,6.7,9.7c4,6.2,9.3,12.3,15.8,15.8C46.2,79.1,46.3,79,46.3,78.9z"/>
		<path class="st8" d="M33.6,34c-0.3-2.1-0.8-4.3-1.2-6.4c-0.5-2.1-0.8-4.1-1.2-6.1c-0.5-2-0.7-4.1-0.7-6.2h-0.1
			c-0.5,4,0.7,8.1,1.5,12c0.4,2.1,0.9,4.2,1.3,6.3c0.2,1,0.5,2,0.6,3.1c0.1,0.9,0.3,1.8,0.6,2.7c0,0,0.1,0,0.1,0
			C34,37.7,33.9,35.8,33.6,34z"/>
		<path class="st8" d="M47.9,9.9c-1.2,3.5-1.2,7.1-1.2,10.8c0,4.2,0,8.4,0.3,12.5c0,0,0.1,0,0.1-0.1c0-3.9,0-7.7,0-11.6
			C47,17.7,47.3,13.8,47.9,9.9L47.9,9.9z"/>
		<path class="st8" d="M62.3,14.2c-0.8,2.3-1.4,4.8-1.7,7.3c-0.5,2.8-0.8,5.6-1.2,8.5c0,0.1,0.1,0,0.1,0c0.5-2.7,1-5.4,1.5-8
			S61.5,16.7,62.3,14.2C62.4,14.1,62.3,14.2,62.3,14.2z"/>
		<path class="st8" d="M73.7,22.3c-2.1,2.5-2.8,6.2-3.4,9.3c0,0.1,0.1,0,0.1-0.1c0.5-1.6,1-3.1,1.5-4.7
			C72.4,25.4,72.8,23.7,73.7,22.3C73.8,22.3,73.7,22.3,73.7,22.3z"/>
		<path class="st8" d="M62.8,47.8c-4.9-1.7-10.5-1.7-15.5-1.3c0,0-0.1,0,0,0c5.2,0,10.3,0.5,15.4,1.5C62.7,48,62.9,47.8,62.8,47.8z"
			/>
		<path class="st7" d="M65.9,45.6c-3.7-1.3-7.5-2.1-11.5-2.2c-2.5,0-4.9,0.2-7.4,0.5c-1.8,0.3-3.6,0.7-5.3,1.2c0,0,0,0,0,0
			c1.7-0.3,3.4-0.8,5.2-1c2.3-0.3,4.5-0.4,6.8-0.5c4.4-0.1,9.4,1.4,13.6,2.8C66.8,46.2,66.3,45.9,65.9,45.6z"/>
		<path class="st8" d="M66.4,69.9c0,0-2,9.2-10.5,10.7C55.9,80.6,62.6,79,66.4,69.9z"/>
		<path class="st7" d="M51.2,95.9L51.2,95.9c-2.3,0-4.7-0.2-7-0.6c-3.8-0.9-3.7-3.9-3.7-4l2.1-11.8c-0.3-0.2-0.5-0.5-0.8-0.7
			c-2.5-1.4-4.7-3.3-6.6-5.5c-2.3-3-4.4-6.1-6.3-9.3c-4.1-6.5-8.4-13.3-14.9-17.3l-0.2-0.1c-0.7-0.4-1.8-1.1-1.6-2.1
			c0.4-2.5,2.6-3.9,6-3.9c2.7,0,5.4,0.8,7.6,2.3c1.6,1.5,3,3.2,4.2,5c1.1,1.7,2.4,3.3,3.8,4.7l0.1-0.8c-0.2-2.1-0.6-7.9-1.6-14.5
			c-0.4-2.7-1.1-5.8-1.8-8.9c-1.6-7-3.1-13.6-1.1-15.8c0.6-0.7,1.6-1.2,2.6-1.2c2.2,0,5.1,2.3,6.3,8.8c1.4,7.1,4,18,5.5,23.9
			c0.1,0,0.2,0,0.3,0l0.2-0.1c0.4-0.1,0.5-0.2,0.6-0.7c0-5.9,0.1-20.5,0.1-27.6c0-4.5,1.2-6.6,2.2-7.6c1.1-1.1,2.8-1.4,4.2-0.6
			c2.2,1.1,2.5,8.5,2.7,18.8c0,2.2,0.1,4.2,0.2,6c0.2,4,0.4,7.9,0.5,10.6c0.1,0,0.2-0.1,0.3-0.1C56,36.2,58,24.2,59,18
			c0.8-5,2.8-7.9,5.4-7.9c0.8,0,1.5,0.3,2.2,0.8c2,1.5,1.2,8.8-0.3,19c-0.3,2.1-0.6,4.1-0.9,5.9c-0.3,2.9-0.7,6-0.9,9.3l0.4,0.1
			c1.5-5.9,3.5-13.7,4.7-18.2c1.1-4.3,3.1-6.8,5.4-6.8c0.8,0,1.6,0.3,2.2,0.9c1.8,1.5,0.3,8.1-1.8,17.3c-0.4,1.9-0.9,3.8-1.2,5.4
			c-0.6,2.9-1.2,6.2-1.8,9.6c0.4,4.6-0.7,11-1.3,14.5L71,68.3c-1,5.6-3.6,9.8-7.6,12.3c0.1,3.8,0.5,7.6,1,11.4
			c0,1.2-1.7,2.2-1.9,2.3h0C58.8,95.4,55,96,51.2,95.9z M18,41.3c-1.8,0-4.9,0.4-5.4,3.4c-0.1,0.6,0.7,1.1,1.3,1.5l0.2,0.1
			c6.7,4,11,10.9,15.1,17.5c1.9,3.2,4,6.3,6.3,9.2c1.8,2.1,4,4,6.4,5.3h0.1c0.3,0.3,0.6,0.5,0.9,0.8c0.1,0.1,0.1,0.1,0.1,0.2l-2,12
			c0,0.1-0.1,2.5,3.3,3.3c2.3,0.5,4.6,0.7,6.9,0.6c3.7,0.1,7.5-0.4,11-1.5c0.5-0.3,1.6-1.1,1.6-1.8c0-0.2-0.6-3.3-1-11.6
			c0-0.1,0.1-0.2,0.2-0.3c4-2.3,6.5-6.4,7.5-12l0.1-0.6c0.6-3.4,1.7-9.9,1.3-14.4v-0.1c0.6-3.4,1.2-6.7,1.8-9.6
			c0.3-1.6,0.8-3.4,1.2-5.4c1.5-6.5,3.6-15.4,2-16.8c-0.5-0.5-1.2-0.7-1.9-0.7c-2,0-3.8,2.4-4.8,6.4C69,31.6,67,39.6,65.5,45.5
			c0,0.1-0.1,0.1-0.1,0.2c-0.1,0-0.2,0-0.2,0c-0.5-0.2-0.9-0.2-0.9-0.2c-0.1,0-0.2-0.2-0.2-0.3c0.3-3.4,0.6-6.6,0.9-9.5
			c0.2-1.8,0.5-3.8,0.8-6c1.1-7.6,2.4-17,0.5-18.4c-0.5-0.4-1.2-0.6-1.8-0.6c-1.8,0-4,2-4.9,7.4c-1,6.3-3,18.3-4.1,25
			c0,0.1,0,0.1-0.1,0.2c-0.3,0.3-0.7,0.3-1.1,0.2c-0.1,0-0.2-0.1-0.2-0.3c-0.2-2.7-0.4-6.7-0.5-10.8c-0.1-1.8-0.1-3.8-0.2-6
			C53.2,18.7,53,9.2,51,8.1c-1.2-0.7-2.6-0.4-3.6,0.5c-1.3,1.3-2,3.9-2,7.2c0,7.1-0.1,21.7-0.1,27.7c-0.2,0.9-0.5,1-1,1.2l-0.2,0.1
			c-0.3,0.1-0.6,0.1-0.9,0c-0.1,0-0.1-0.1-0.1-0.2c-1.5-5.9-4.2-17-5.6-24.1c-1.2-6.2-3.8-8.4-5.8-8.4c-0.8,0-1.6,0.4-2.1,1
			c-1.8,2-0.3,8.7,1.2,15.3c0.7,3,1.4,6.2,1.8,8.9c1,6.6,1.5,12.4,1.6,14.6c0,0.3,0,0.7-0.1,1v0.4c0,0.1-0.1,0.2-0.2,0.2
			c-0.1,0.1-0.2,0.1-0.3,0c-1.7-1.5-3.2-3.3-4.4-5.2c-1.1-1.8-2.5-3.4-4.1-4.9C23.1,42.1,20.6,41.3,18,41.3z"/>
	</g>
</g>
</svg>
