<?xml version="1.0" encoding="utf-8"?>
<!-- Generator: Adobe Illustrator 23.0.3, SVG Export Plug-In . SVG Version: 6.00 Build 0)  -->
<svg version="1.1" id="Capa_1" xmlns="http://www.w3.org/2000/svg" xmlns:xlink="http://www.w3.org/1999/xlink" x="0px" y="0px"
	 viewBox="0 0 103.2 104.2" style="enable-background:new 0 0 103.2 104.2;" xml:space="preserve">
<style type="text/css">
	.st0{fill:#E3C5AF;}
	.st1{fill:#EFD2B7;}
	.st2{opacity:0.4;fill:#E6B18E;enable-background:new    ;}
	.st3{opacity:0.4;fill:url(#SVGID_1_);enable-background:new    ;}
	.st4{fill:#CA7D5C;}
	.st5{opacity:0.8;}
	.st6{opacity:0.8;fill:#EFD2B7;enable-background:new    ;}
</style>
<title>rock</title>
<g>
	<g>
		<path class="st0" d="M38.7,68.8l-3.3,20.6c0,0-0.2,4.2,5.3,5.5s18.6,1.5,27.1-1.3c0,0,2.6-1.5,2.6-3.1c0,0-1.3-22.3-2-22.1
			C67.8,68.6,38.7,68.8,38.7,68.8z"/>
		<path class="st1" d="M38.7,68.8l-3.3,20.6c0,0-0.2,4.2,5.3,5.5s18.6,1.5,27.1-1.3c0,0,2.6-1.5,2.6-3.1c0,0-1.3-22.3-2-22.1
			C67.8,68.6,38.7,68.8,38.7,68.8z"/>
		<path class="st2" d="M68.5,68.4C68,68.5,53.6,68.7,45,68.7c0.8,2.6,2.6,4.8,5,6.2c3.2,1.8,6.7,1.9,10.1,2.6
			c6,1.3,4.9-16.4,5.2,13.2c-0.1,1.5-0.8,2.9-2,3.9c1.5-0.3,3-0.7,4.5-1.2c0,0,2.6-1.5,2.6-3.1C70.4,90.5,69.1,68.1,68.5,68.4z"/>
		<path class="st1" d="M55.5,76.8c0,0-15,1.4-22.5-10.1c-7.4-11.5-10.2-25.5-7.7-39c2.5-12.7,11-18.6,14.3-18.6
			c2.2,0.1,4.2,1,5.8,2.5c0,0,4.5-2.4,8.7-1.6c4.2,0.8,6.6,4,7.4,7.4c2-1,4.4-1,6.5-0.2c3.8,1.3,6,6.1,6,8.5c3.7-0.4,7.2,1.5,9,4.7
			c3.1,5.6-0.6,20.7-3.4,27.3C77.1,63.7,71.1,76.5,55.5,76.8z"/>
		<path class="st2" d="M82.9,30.5c-1.8-3.2-5.3-5.1-9-4.7c0-2.4-2.2-7.2-6-8.5c-2.1-0.8-4.4-0.7-6.5,0.2c-0.9-3.4-3.3-6.7-7.4-7.4
			s-8.7,1.6-8.7,1.6c-1.6-1.5-3.6-2.4-5.8-2.5c-3.3,0-11.8,5.9-14.3,18.6c-2.5,13.5,0.2,27.4,7.7,39c7.5,11.5,22.5,10.1,22.5,10.1
			c15.6-0.3,21.6-13.1,24.1-19C82.3,51.2,86,36.1,82.9,30.5z M46.8,13.9c0.3-0.7,0.9-1.3,1.6-1.6c2.3-1.7,6.3-1.5,7.3,1.7
			c0.7,2.6,1.3,8.1-1.4,9.8c-2.7,1.7-6.9,0.7-7.4-2.8C46.4,18.8,46.1,16.1,46.8,13.9z M32.4,16.9c0.3-1.9,1.5-3.7,3.1-4.7l0,0
			c1.9-1.3,4.7-2,5.7,0.7c0.3,1.2,0.5,2.4,0.5,3.6c0.2,1.6,0.3,3.2,0.2,4.7c-0.3,2.7-2,5-4.5,6c-2.3,0.9-3.5-0.4-4.2-2.7l-0.1-0.2
			C32.1,21.9,31.8,19.3,32.4,16.9z M50.5,35c-2,0.8-4,1.8-5.9,2.9c-1.8,1.3-3.2,3-4,5.1c-0.5,2.2,0,4.5,1.3,6.4
			c1.1,1.4,2.5,2.3,3.7,3.5c2.2,2,3.6,4.7,4.1,7.6c0.7,4.1,1.3,9.7-4.5,9.4c-5.5-0.3-9.8-3.7-12.8-8.1c-2.2-3.1-3.9-6.6-4.9-10.3
			c0-0.1-0.1-0.1-0.1-0.2c-1.3-4.1-1.5-8.2,0.9-11.9c2.2-3.6,5.3-6.7,8.9-9c3.8-2.3,7.9-2.9,12.3-3.4c2.2-0.3,4.4-0.8,6.7-0.9
			c1.4-0.1,3.9-0.3,4.5,1.3c0.7,2.1-3,4-4.3,4.6C54.5,33,52.5,34.1,50.5,35z M62.8,40.8c-0.7-0.1-1.3-0.3-1.9-0.8
			c-0.9-0.6-1.4-1.6-0.8-3.3c0.7-1.9,2.2-2.8,3.4-4.3c1.2-1.5,2.6-4.2,1.9-6.1c-0.3-0.7-0.7-1.3-1.3-1.9c-0.2,0-0.4-0.1-0.6-0.1
			c-0.3,0-0.7-0.1-1-0.2c-0.4-0.3-0.6-0.8-0.5-1.3c-0.3-2.4,1.1-4.5,3.7-4.6c2.6,0,5.4,3.2,5.8,5.6c0.2,1.5-0.1,3-0.9,4.4
			c-1,2.3-2,4.6-3.1,6.8C66.4,37.7,66,41.2,62.8,40.8z M78.4,36.6c-0.4,1.8-1.2,3.6-2.3,5.1c-0.7,1.1-1.7,2-2.8,2.5
			c-0.1,0.1-0.3,0.2-0.4,0.1h-0.1c-0.4,0-0.8,0-1.1-0.1c-0.8-0.2-1.6-0.7-2.2-1.4c-0.8-0.7-1.1-1.8-0.9-2.8c0.2-0.9,0.4-1.7,0.7-2.5
			c0.2-0.5,0.4-1,0.6-1.5c0.2-0.6,0.5-1.2,0.7-1.8c0.7-1.8,1.5-3.6,2.4-5.3c1.3-2,3.6-3,5.3-0.7C80.2,30.8,79.5,33.8,78.4,36.6z"/>
		
			<linearGradient id="SVGID_1_" gradientUnits="userSpaceOnUse" x1="39.5117" y1="-10.1946" x2="60.4192" y2="-10.1946" gradientTransform="matrix(1 0 0 -1 -2.36 75.4814)">
			<stop  offset="0" style="stop-color:#EFC4A4"/>
			<stop  offset="1" style="stop-color:#E6AD99"/>
		</linearGradient>
		<path class="st3" d="M52.9,79.4c3.5,0,4.5,3.8,4.5,3.8s1.2-5.1,0.3,3.9s-15.6,6.4-15.6,6.4c-5.4-1-5-5.8-5-5.8l2.2-6
			c0,0-0.1-4.5,2.3-4.2C43.8,77.7,52.9,79.4,52.9,79.4z"/>
		<path class="st2" d="M84,34.4c0,0.2-0.1,0.4-0.1,0.5c-0.5,2-1.8,3.6-3.7,4.5c-0.2,0.1-0.5-0.1-0.5-0.3c0,0,0,0,0,0
			c-0.1-0.5-0.1-1.1-0.2-1.6c-0.1,0.4-0.3,0.8-0.4,1.2c-0.5,1.3-1.3,2.5-2.2,3.5c-1,1-2.2,1.9-2.8,3.2c-0.8,1.7-1,4.7-3,5.6
			c-1.3,0.6-2.6,0.4-3.3-1.1c-2.5-5.4,0.4-11.1,2.5-16.2c0.8-2.2,1.9-4.2,3.2-6.1c0.5-0.7,1.1-1.4,1.9-1.9c-0.4,0-0.9,0-1.3,0
			c0-0.8-0.2-1.6-0.4-2.3c0,1.3-0.3,2.5-0.9,3.7c-1.5,3.2-3.2,6.3-4.8,9.4c-1.1,2-1.9,4.1-2.4,6.3c-0.1,1-0.1,2.4-0.7,3.3
			c-1.4,2-3.5,0.2-4.6-1.2c-1.6-2-2.2-4.5-1.8-7c0.6-2.5,3-3.8,4.8-5.5c1-0.9,1.7-1.9,2.3-3.1c0-0.1,0.1-0.2,0.1-0.3
			c0.1-0.4,0.1-0.8,0.1-1.2c-0.1-1.5-1.1-2.8-2.6-3.2c-0.4,0-0.8-0.1-1.1-0.3c-0.7-0.5-0.6-1.4-0.6-2.2c0.2-1.7,0.5-3.3,0.6-5
			c-0.1,0.1-0.2,0.1-0.4,0.2c-0.6-2.7-2.3-5.1-4.7-6.5c0.3,0.3,0.5,0.6,0.8,0.9c1.5,2.1,0.9,4.5,0.9,6.9c-0.1,1.9,0.2,4.3-1.2,5.8
			c-1,1-3.5,0.6-4.7,0.6c-1.4,0-4,0.2-5.1-1c-1.4-1.5-1-4.4-0.9-6.3c0-0.5,0-1.1,0-1.6c-0.1-1.9-0.2-4.1,1.3-5.5
			c-0.8,0.3-1.6,0.6-2.4,1c-1.3-1.3-3-2.1-4.8-2.4c1.2,0.4,2.1,1.3,2.6,2.5c1.1,2.3,0.7,5,1,7.4c0.2,2.2,0.5,4.6-1.6,6.1
			c-1.5,1-3.1,1.8-4.5,2.9c-0.7,0.6-1.4,1.1-2.3,1.3c-1.3,0.1-1.8-1.3-2.3-2.2c-0.9-2-1.4-4.1-1.8-6.3l-0.1-0.9
			c-0.3,1.6-0.3,3.2-0.3,4.9c0,0.2-0.2,0.4-0.4,0.4c-0.1,0-0.2,0-0.3-0.1c-0.6-0.5-1.1-1-1.6-1.6c0.1,0.5,0.3,1,0.4,1.4
			c0.7,1.9,2.4,4,1.3,6.1c-1.3,2.6-3.2,4.6-4.2,7.4c-1,2.8-1.4,5.9-1.1,8.9c0.2-1.3,0.5-2.5,0.7-3.5c0.9-4.1,3-7.9,6-10.9
			c6.3-6.1,14.7-6.6,22.9-7.6c2.2-0.3,4.6-0.9,6.8-0.6c1-0.1,1.9,0.6,2.2,1.6c0.8,2.6-3,6-5,7c-3.8,1.9-8.2,2.2-11.9,4.1
			c-1.3,0.7-2.4,1.7-3.2,2.9c-1,2.1-1.5,4.5-0.3,6.4c1.1,1.7,3,2.5,4.3,4c2.7,3.1,4.6,6.8,5.6,10.8c0.4,1.8,0.7,3.7,0.9,5.6
			c0.3-2.4,0.4-4.8,0.1-7.2c-0.3-4.3-2.1-8.5-4.9-11.8c-0.2-0.2-0.2-0.5,0-0.6c0.1-0.1,0.3-0.1,0.4-0.1c2.4,0.7,6.6,3.7,8,0.1
			c0.1-0.2,0.3-0.4,0.6-0.3c0.1,0,0.2,0.1,0.2,0.2c1.5,2,4,6,6.7,3.1c0.2-0.2,0.4-0.2,0.6,0c0,0,0,0.1,0.1,0.1
			c0.5,1.3,1.3,2.5,2.3,3.5c1.5,1.4,4,1.6,5-0.7c0.9-2,0.5-5.1,2.3-6.7c1.1-0.9,2,2.1,2.1,2.6c0.3,1.4,0.3,2.8,0.2,4.2
			c0.3,5-1.5,9.4-3.9,13.6c2.1-2.9,3.9-6,5.3-9.4C81.8,52.4,84.7,41.3,84,34.4z M56.7,43.1c0,1.3-0.8,2.5-2.1,2.8
			c-1.5,0.4-3.1-1.1-3.7-2.2c-0.6-0.8-1-1.7-1.2-2.7c-0.5-0.6-0.6-1.5-0.2-2.2c0.9-1.2,2.4-1.8,3.9-1.8C56.3,37.5,56.9,41,56.7,43.1
			L56.7,43.1z"/>
		<path class="st4" d="M81.4,39.6c-0.8,0.4-1.6,0.8-2.4,1.1c-0.1,0.1-0.2,0.2-0.3,0.3l0,0c0.7-1.2,1.1-2.5,1.1-3.8
			c0-0.2-0.1-0.4-0.1-0.7c-0.1-0.1-0.2-0.3-0.3-0.4c-0.1,1.8-0.5,3.6-1.3,5.2c-0.4,0.7-0.9,1.4-1.5,2c-1,0.9-1.8,1.9-2.3,3.1
			c-0.6,1.9,0.3,6.4-2.4,7c-0.9,0.2-1.9,0.1-2.7-0.2c-1.7-0.9-2.4-4.4-2.7-5.8c-1-4.5,1.8-9,3.5-13.1c0.7-1.8,1.6-3.5,2.5-5.3
			c0.1-0.1,0.1-0.2,0.2-0.4c0.4-1,0.9-1.9,1.5-2.9c-0.4,0.2-0.8,0.6-1,1c-0.5,0.9-1,1.8-1.4,2.8l0,0c-1.2,2.2-2.1,4.6-3.2,6.8
			c-1.9,3.8-3.4,7.8-2.4,11.9c-0.3,0.6-0.7,1.4-1.3,1.5c-0.6,0-1.2-0.2-1.8-0.5c-1.1-0.6-2-1.4-2.7-2.4c-0.5-0.7-0.9-1.4-1.3-2.1
			l0.1,0.1c-0.7-1.2-1.1-2.5-1-3.9c-0.1-1.8,0.3-3.6,0.2-5.4c1.1-0.4,2.2-0.9,3.1-1.5c0.9-0.5,1.8-1.1,2.5-1.8
			c1.5-1.8,3-5.3,0.7-7.2c-0.9-0.8-2.9-0.2-3.9-0.1h-0.3c0.1-1,1.2-5.9,1.2-7l-0.3,0.5c-0.2,0.9-1.3,4.9-1.4,6
			c-0.1,0.2-0.2,0.4-0.3,0.6c-0.1,0.2-1.6,0.1-1.8,0.1c-1.2,0.1-2.3,0.2-3.5,0.2l-3.3,0.2c-0.3,0.1-0.7,0.1-1,0.1
			c-0.4,0.1-0.8,0.1-1.1,0.1c-0.6,0.1-1.2,0.1-1.9,0.2c0-0.9-0.1-1.8-0.2-2.7l-0.2-3.4c-0.1-0.6-0.2-1.2-0.3-1.9
			c-0.1-1.9-0.4-3.8-0.8-5.7c-0.1,2-0.2,3.9-0.2,5.8c0.1,0.5,0.1,1.1,0.2,1.6c0.2,1.2,0.3,2.3,0.4,3.5c0,0.2,0.1,0.4,0.1,0.7
			c0.1,0.7,0.1,1.4,0.1,2.1c-1.3,0.2-2.5,0.5-3.8,0.8c-2.5,0.6-4.8,1.6-6.8,3.1c-0.3,0.3-0.6,0.6-1,0.8l-0.1,0.1l0,0l-0.1,0.1
			c-1.2-3.2-2.1-6.5-2.7-9.8c-0.2-0.6-0.5-1.2-0.8-1.8c0.1,0.5,0.2,1,0.3,1.3c0.2,1.4,0.4,2.9,0.7,4.4c0.1,0.5,0.2,1,0.3,1.5
			c-0.5-0.2-1.1-0.6-1.5-0.9c-0.8-0.7-1.2-1.7-2-2.4v0.2c0.4,1,1,2,1.8,2.8c0.5,0.5,1.2,0.8,1.9,0.9c0.3,1.4,0.9,2.8,1.6,4.1
			l-0.7,0.6l-0.5,0.5c-4.4,3.4-7.4,8-7.4,13.5V46c0.3-0.8,0.6-1.5,0.9-2.3c0.2-1.6,0.7-3.2,1.3-4.6c1.5-3.3,4.2-5.7,7.1-7.7
			c2.4-1.8,5-3.2,7.9-4.1c1.2-0.3,2.5-0.6,3.8-0.8c0,0.1,0.1,0,0.3,0l1.2-0.2c2.7-0.3,5.5-0.3,8.3-0.5c1.6-0.1,3.2-0.3,4.8-0.5
			c2-0.1,3.4-0.4,3.9,2c0.4,2-1.3,4.4-2.9,5.6l-0.3,0.2c-0.1,0.1-0.2,0.1-0.2,0.2c-1.7,1-3.5,1.7-5.4,2.2c-1.5,0.5-2.9,0.6-4.2,1
			c0,0-0.1,0-0.1,0h-0.1c-0.1,0-0.1,0-0.2,0.1c-0.2,0.1-0.4,0.2-0.6,0.3c-0.5,0.2-0.9,0.4-1.4,0.7c-1,0.7-2,1.6-2.8,2.5
			c-1,1-1.5,2.3-1.6,3.6c0.2,1.1,0.7,2.1,1.5,2.9c0.9,0.8,1.8,1.6,2.6,2.5c1.6,2.1,2.9,4.4,3.8,6.9c1.1,3,1.6,6.3,1.6,9.5
			c0,0.6,0,1.2,0,1.8c0.1-0.4,0.2-0.7,0.3-1.1c0.4-4-0.2-8.1-1.8-11.9c-0.7-1.6-1.5-3.1-2.4-4.6c-0.5-0.7-1-1.4-1.6-2
			c-0.2-0.3-1.4-1.7-1.7-1.6c0.2-0.1,0.5-0.2,0.6-0.4c0.6-0.5,1.1-1.2,1.4-1.9c0,0.1,0.1,0.1,0.1,0.2c0.2,0.4,0.4,0.8,0.7,1.2
			c0.3,0.5,0.7,1,1.2,1.3c1.3,1,2.7,2.1,4.4,1.4c1.3-0.6,2.2-1.9,2.3-3.4c0.2,0.6,0.5,1.1,0.9,1.7c0.8,1.5,1.9,2.7,3.4,3.5
			c1.7,0.9,3.1,0.5,3.7-1c0.2,0.6,0.4,1.2,0.6,1.8c0.4,0.8,0.9,1.6,1.5,2.2c1.4,1.7,3.4,1.3,4.8,0.2c0.6-0.5,0.6-1.4,0.9-2.1
			c0.3-0.9,0.5-1.7,0.6-2.6c0.1-0.9,0.3-1.8,0.5-2.6c0.3-0.7,0.8-1.4,1.3-2c0.5-0.6,1.1-1.1,1.6-1.7c0.1-0.2,0.3-0.4,0.4-0.6
			c0.1-0.1,0.2-0.2,0.4-0.2c0.3-0.2,0.7-0.3,1.1-0.4c0.5-0.2,1.1-0.5,1.5-0.9c0.2-0.2,0.6-0.4,0.6-0.7
			C81.7,39.4,81.5,39.5,81.4,39.6z M49.2,43.6c0,0.9-1,2.3-1.9,2.4h-0.2l-0.2-0.2c-1.1-0.8-1.6-2.2-1.2-3.5l0.1-0.2
			c0.7-1,1.6-1.9,2.5-2.8c0,1.4,0.4,2.8,1,4.1C49.3,43.5,49.2,43.5,49.2,43.6z M54.1,47.7c-0.8-0.2-1.6-0.6-2.2-1.2H52
			c-0.4,0-1.2-1.3-1.5-1.7c-0.5-0.8-0.8-1.6-1-2.4c-0.3-1-0.6-2-1-3c0,0,0.1,0,0.1-0.1s0-0.1,0-0.2l0.4-0.4c2.1-1.8,5.2-1.8,7.8-2.6
			c0.4-0.1,0.8-0.3,1.2-0.4c-0.3,1.1-0.5,2.2-0.6,3.4c-0.1,1.8,0,3.6,0.2,5.4C57.5,46.6,56.8,48.4,54.1,47.7L54.1,47.7z"/>
		<path class="st1" d="M75.5,55c-1.4,0.9-2.6,1.9-3.9,2.8c-2.3,1.5-5.1,2.1-7.9,1.6C62,59.1,58.9,57,57.4,59
			c-1.3,1.9-0.8,5.9-0.2,7.7c0.9,2.9,3.5,4.3,6.6,4.1c4.4-0.4,8.4-3.1,10.5-7c1.2-2.3,1.7-3.8,2.4-5.4C77.1,57.4,77.7,53.6,75.5,55z
			"/>
		<g class="st5">
			<path class="st1" d="M34.1,20.5c-0.2-1.2-0.5-2.3-0.9-3.4c0-0.1-0.1,0.1-0.1,0.1c0,1.3,0.1,2.5,0.3,3.8c0.4,1.7,1,3.3,1.8,4.8
				c0,0.1,0.2,0,0.2-0.1C34.7,24,34.5,22.2,34.1,20.5z"/>
			<path class="st1" d="M48.5,17.3c0.1-1.2,0-2.4-0.1-3.5c0-0.1-0.2,0-0.2,0.1c-0.3,1.2-0.5,2.5-0.6,3.8c0,1.7,0.2,3.4,0.6,5.1
				c0,0.1,0.2,0,0.2-0.1C48.4,20.8,48.6,19.1,48.5,17.3z"/>
			<path class="st1" d="M29.3,18.5c-0.5,1.5-1.4,2.8-2,4.3c-0.6,1.5-1.1,3.1-1.5,4.7c-0.7,3.2-0.9,6.4-0.6,9.6
				c0,0.1,0.2-0.1,0.2-0.1c0.1-3.3,0.6-6.6,1.3-9.9c0.4-1.5,0.8-3,1.1-4.5C28.3,21.1,29,19.9,29.3,18.5
				C29.4,18.4,29.3,18.5,29.3,18.5z"/>
			<path class="st1" d="M29.3,39.2c0-0.1-0.1,0-0.1,0c-0.8,1.7-1.3,3.4-1.5,5.3c-0.2,2.5,0.1,5,0.7,7.4c1.3,4.6,3.6,8.9,6.9,12.4
				c0,0,0.1-0.1,0.1-0.1C30.6,57.2,26.8,47.8,29.3,39.2z"/>
			<path class="st1" d="M65.5,18.9c-1.5,0.9-2.9,2.3-2.7,4.2c0,0.1,0.2-0.1,0.2-0.1C63.6,21.5,64.4,20.2,65.5,18.9
				C65.5,19,65.6,18.9,65.5,18.9z"/>
			<path class="st1" d="M74.1,29c-2.5,3.3-4.2,7.2-5,11.3c0,0.1,0.2,0,0.2-0.1c0.8-2,1.7-3.9,2.5-5.8c0.7-1.8,1.5-3.6,2.4-5.4
				C74.2,28.9,74.1,29,74.1,29z"/>
		</g>
		<path class="st6" d="M40.5,80.5c0,0-2.4,2.6-2.6,8.1C38,88.6,41.2,94.6,40.5,80.5z"/>
		<path class="st4" d="M51.1,96.2L51.1,96.2c-3.5,0.1-7-0.3-10.5-0.9c-5.8-1.4-5.6-5.9-5.6-5.9l3-16.7c-2.2-1.5-4-3.4-5.5-5.6
			C25,55.3,22.3,41.3,24.8,27.7c2.5-12.4,10.9-19,14.8-19c2.2,0.1,4.3,1,5.9,2.5c2.1-1.1,4.5-1.7,6.9-1.8c4.5,0,8.4,3,9.4,7.4
			c1-0.4,2-0.6,3.1-0.6c1.1,0,2.2,0.2,3.2,0.6c3.9,1.3,6,6,6.3,8.5h0.5c3.5-0.1,6.8,1.9,8.5,5C86.5,36,82.9,51.1,80,58
			c-2,4.7-5,10.6-10.6,14.8c0.7,12.1,1.5,17.4,1.5,17.7c0,1.8-2.5,3.3-2.8,3.4H68C62.1,95.9,54.8,96.2,51.1,96.2z M39.6,9.6
			c-1.5,0-4.3,1.4-7.1,4.4c-3.5,3.9-5.9,8.7-6.8,13.8c-2.5,13.4,0.2,27.2,7.6,38.6c1.4,2.2,3.3,4.1,5.4,5.6c0.1,0.1,0.2,0.2,0.2,0.4
			l-3,17c0,0.1-0.1,3.8,4.9,5c3.4,0.7,6.8,1,10.3,0.9c3.7,0,10.8-0.3,16.6-2.2c0.7-0.4,2.4-1.6,2.4-2.6c0-0.3-0.9-6.1-1.6-17.9
			c0-0.1,0.1-0.3,0.2-0.4c5.6-4,8.6-9.9,10.5-14.5c2.7-6.5,6.3-21.5,3.4-26.9c-1.5-2.8-4.5-4.6-7.7-4.5c-0.3,0-0.5,0-0.8,0
			c-0.1,0-0.3,0-0.4-0.1c-0.1-0.1-0.2-0.2-0.2-0.3c0-2.1-2-6.9-5.7-8.1c-0.9-0.3-1.9-0.5-2.9-0.5c-1.1,0-2.2,0.2-3.2,0.7
			c-0.1,0.1-0.3,0.1-0.4,0c-0.1-0.1-0.2-0.2-0.3-0.3c-1-3.8-3.6-6.5-7.1-7.1c-0.5-0.1-1.1-0.1-1.6-0.1c-2.4,0.1-4.7,0.7-6.8,1.8
			c-0.2,0.1-0.4,0.1-0.5-0.1C43.6,10.6,41.6,9.7,39.6,9.6z"/>
	</g>
</g>
</svg>
