<svg xmlns="http://www.w3.org/2000/svg" xmlns:xlink="http://www.w3.org/1999/xlink" viewBox="0 0 69.28 99.94"><defs><style>.cls-1{isolation:isolate;}.cls-2{fill:#e3c5af;}.cls-3,.cls-8,.cls-9{fill:#efd2b7;}.cls-4{fill:#e6b18e;mix-blend-mode:multiply;}.cls-4,.cls-5{opacity:0.4;}.cls-5,.cls-7,.cls-9{mix-blend-mode:screen;}.cls-5{fill:url(#linear-gradient);}.cls-6{fill:#ca7d5c;}.cls-7,.cls-9{opacity:0.8;}.cls-8{mix-blend-mode:color-dodge;}</style><linearGradient id="linear-gradient" x1="17.53" y1="118.08" x2="41.42" y2="118.08" gradientUnits="userSpaceOnUse"><stop offset="0" stop-color="#efc4a4"/><stop offset="1" stop-color="#e6ad99"/></linearGradient></defs><title>rock</title><g class="cls-1"><g id="Capa_1" data-name="Capa 1"><path class="cls-2" d="M19.31,98.8l-3.75,23.5s-.25,4.75,6,6.25,21.25,1.75,31-1.5c0,0,3-1.75,3-3.5,0,0-1.5-25.5-2.25-25.25S19.31,98.8,19.31,98.8Z" transform="translate(-2.36 -30.18)"/><path class="cls-3" d="M19.31,98.8l-3.75,23.5s-.25,4.75,6,6.25,21.25,1.75,31-1.5c0,0,3-1.75,3-3.5,0,0-1.5-25.5-2.25-25.25S19.31,98.8,19.31,98.8Z" transform="translate(-2.36 -30.18)"/><path class="cls-4" d="M53.31,98.3c-.52.18-17,.35-26.85.44a12.4,12.4,0,0,0,5.7,7.05c3.6,2,7.61,2.22,11.55,3,6.88,1.43,5.63-18.7,5.92,15.08a6.26,6.26,0,0,1-2.23,4.46,42.67,42.67,0,0,0,5.16-1.32s3-1.75,3-3.5C55.56,123.55,54.06,98.05,53.31,98.3Z" transform="translate(-2.36 -30.18)"/><path class="cls-3" d="M38.44,107.93s-17.13,1.62-25.75-11.5a61.47,61.47,0,0,1-8.75-44.5c2.87-14.5,12.62-21.25,16.37-21.25a10.38,10.38,0,0,1,6.59,2.87s5.16-2.75,9.91-1.87,7.5,4.62,8.5,8.5a9.35,9.35,0,0,1,7.38-.25c4.37,1.5,6.87,7,6.87,9.75a10.4,10.4,0,0,1,10.25,5.37c3.5,6.38-.66,23.67-3.83,31.17C63.12,93,56.31,107.55,38.44,107.93Z" transform="translate(-2.36 -30.18)"/><path class="cls-4" d="M69.81,55.05a10.4,10.4,0,0,0-10.25-5.37c0-2.75-2.5-8.25-6.87-9.75a9.35,9.35,0,0,0-7.38.25c-1-3.88-3.75-7.63-8.5-8.5s-9.91,1.87-9.91,1.87a10.38,10.38,0,0,0-6.59-2.87c-3.75,0-13.5,6.75-16.37,21.25a61.47,61.47,0,0,0,8.75,44.5c8.62,13.12,25.75,11.5,25.75,11.5C56.31,107.55,63.12,93,66,86.22,69.15,78.72,73.31,61.43,69.81,55.05ZM28.54,36.11a3.28,3.28,0,0,1,1.81-1.81c2.63-1.93,7.22-1.76,8.29,1.93.84,2.93,1.43,9.3-1.61,11.19s-7.83.82-8.49-3.2C28.12,41.72,27.72,38.56,28.54,36.11ZM12.12,39.49a7.72,7.72,0,0,1,3.57-5.35l0,0c2.12-1.45,5.33-2.32,6.54.75a15,15,0,0,1,.54,4.08A26.84,26.84,0,0,1,23,44.38a8.27,8.27,0,0,1-5.14,6.82c-2.61,1-3.95-.51-4.82-3.09l-.09-.28A13,13,0,0,1,12.12,39.49ZM32.79,60.18a47,47,0,0,0-6.73,3.27,12.78,12.78,0,0,0-4.57,5.8A9.38,9.38,0,0,0,23,76.54c1.2,1.64,2.81,2.65,4.28,4a14.92,14.92,0,0,1,4.63,8.69c.81,4.63,1.48,11.13-5.11,10.76-6.3-.35-11.14-4.2-14.62-9.27A37,37,0,0,1,6.6,79a.56.56,0,0,1-.12-.2C5,74.11,4.82,69.43,7.54,65.17A32.29,32.29,0,0,1,17.67,54.89c4.3-2.59,9.06-3.29,14-3.84,2.55-.29,5.05-.93,7.62-1.08,1.6-.09,4.47-.39,5.17,1.52.85,2.35-3.45,4.52-4.9,5.28C37.29,57.93,35.08,59.13,32.79,60.18ZM46.88,66.8a3.65,3.65,0,0,1-2.12-.9c-1.08-.66-1.62-1.88-.95-3.73.78-2.14,2.53-3.17,3.91-4.88s2.93-4.75,2.14-7a6.45,6.45,0,0,0-1.44-2.15,6.93,6.93,0,0,0-.71-.13,3,3,0,0,1-1.15-.23A1.38,1.38,0,0,1,46,46.3c-.32-2.76,1.29-5.16,4.26-5.2s6.22,3.64,6.64,6.4a8.59,8.59,0,0,1-1,5c-1.14,2.59-2.24,5.2-3.49,7.73C50.92,63.27,50.44,67.32,46.88,66.8ZM64.64,62A16.46,16.46,0,0,1,62,67.82a7.66,7.66,0,0,1-3.24,2.89.53.53,0,0,1-.46.16l-.13,0a2.92,2.92,0,0,1-1.29-.14,5,5,0,0,1-2.47-1.64,3.35,3.35,0,0,1-1-3.22A22.5,22.5,0,0,1,54.16,63a18.15,18.15,0,0,1,.66-1.77c.27-.66.55-1.33.83-2a35.88,35.88,0,0,1,2.79-6c1.54-2.27,4.06-3.42,6-.78C66.65,55.43,65.9,58.86,64.64,62Z" transform="translate(-2.36 -30.18)"/><path class="cls-5" d="M35.54,110.88c4,0,5.17,4.34,5.17,4.34s1.33-5.84.33,4.5-17.83,7.33-17.83,7.33c-6.17-1.17-5.67-6.67-5.67-6.67l2.5-6.83s-.08-5.17,2.59-4.83C25.11,109,35.54,110.88,35.54,110.88Z" transform="translate(-2.36 -30.18)"/><path class="cls-4" d="M71,59.48a4.66,4.66,0,0,1-.15.62,7.84,7.84,0,0,1-4.18,5.18.5.5,0,0,1-.62-.35c-.08-.6-.15-1.2-.22-1.81a14.35,14.35,0,0,1-.49,1.39,12.9,12.9,0,0,1-2.5,4c-1.11,1.13-2.5,2.18-3.21,3.63-.94,1.92-1.12,5.35-3.43,6.34-1.53.66-3,.49-3.81-1.21-2.81-6.22.49-12.7,2.88-18.46a33.85,33.85,0,0,1,3.61-7A8.87,8.87,0,0,1,61,49.63a9.45,9.45,0,0,0-1.46,0,8.54,8.54,0,0,0-.5-2.61A10.1,10.1,0,0,1,58,51.24c-1.68,3.66-3.7,7.2-5.54,10.77a23.46,23.46,0,0,0-2.72,7.2c-.17,1.14-.13,2.79-.81,3.8-1.59,2.33-4,.23-5.26-1.33a9.84,9.84,0,0,1-2-8c.68-2.9,3.44-4.34,5.45-6.31a10.31,10.31,0,0,0,2.59-3.54c0-.11.06-.22.1-.33a3.69,3.69,0,0,0,.1-1.37,4.07,4.07,0,0,0-2.94-3.69,4,4,0,0,1-1.28-.31c-.78-.53-.72-1.63-.64-2.48.18-1.91.56-3.78.73-5.68a3.61,3.61,0,0,0-.41.2,11.66,11.66,0,0,0-5.41-7.41,7.74,7.74,0,0,1,.89,1c1.67,2.37,1,5.1,1,7.83-.06,2.17.2,4.92-1.4,6.62-1.1,1.17-4,.65-5.38.66-1.62,0-4.61.27-5.86-1.09-1.6-1.74-1.12-5-1-7.25a16.86,16.86,0,0,1,0-1.88c-.08-2.21-.26-4.72,1.52-6.24a19.58,19.58,0,0,0-2.71,1.11,10.87,10.87,0,0,0-5.5-2.79,5.29,5.29,0,0,1,3,2.82c1.31,2.58.82,5.71,1.11,8.47.27,2.57.59,5.29-1.83,6.93-1.68,1.15-3.51,2.08-5.15,3.29a6.37,6.37,0,0,1-2.64,1.49c-1.45.16-2.1-1.43-2.59-2.54a29.08,29.08,0,0,1-2-7.19l-.15-1a28.91,28.91,0,0,0-.33,5.55.5.5,0,0,1-.85.36A17.63,17.63,0,0,1,8.27,47.1a12.92,12.92,0,0,0,.49,1.64c.8,2.21,2.77,4.55,1.54,7-1.5,3-3.65,5.24-4.76,8.5A22.5,22.5,0,0,0,4.28,74.4c.2-1.46.55-2.88.78-4a25.33,25.33,0,0,1,6.87-12.48C19.1,51,28.77,50.4,38.13,49.21c2.46-.31,5.3-1,7.79-.72a2.43,2.43,0,0,1,2.49,1.85c.88,3-3.4,6.89-5.67,8-4.32,2.13-9.36,2.48-13.62,4.69a10.14,10.14,0,0,0-3.64,3.31c-1.09,2.43-1.74,5.18-.34,7.26,1.29,1.9,3.4,2.86,4.88,4.56a29.81,29.81,0,0,1,6.39,12.3,63.38,63.38,0,0,1,1.05,6.36,31.26,31.26,0,0,0,.06-8.2,23.74,23.74,0,0,0-5.58-13.48.5.5,0,0,1,.49-.83c2.79.82,7.52,4.28,9.13.1a.51.51,0,0,1,.92-.12c1.69,2.27,4.62,6.82,7.63,3.56a.5.5,0,0,1,.78.1,12.44,12.44,0,0,0,2.65,4c1.77,1.56,4.59,1.79,5.71-.79,1-2.32.57-5.88,2.6-7.61,1.25-1.07,2.27,2.44,2.38,3a17.44,17.44,0,0,1,.26,4.77C64.85,87,62.83,92.08,60,96.91a47.76,47.76,0,0,0,6-10.69C68.57,80.08,71.83,67.38,71,59.48Zm-31.12,10a3.29,3.29,0,0,1-2.36,3.25c-1.73.45-3.5-1.31-4.23-2.48a9.74,9.74,0,0,1-1.39-3.07,2.3,2.3,0,0,1-.23-2.46,5.37,5.37,0,0,1,4.45-2C39.43,63,40.1,67.1,39.89,69.52Z" transform="translate(-2.36 -30.18)"/><path class="cls-6" d="M68.08,65.4a30.4,30.4,0,0,1-2.77,1.3A.88.88,0,0,0,65,67s0,0,0,0a8.64,8.64,0,0,0,1.22-4.38c0-.25-.1-.5-.15-.76a1.58,1.58,0,0,0-.34-.43,14.07,14.07,0,0,1-1.53,5.93,10.26,10.26,0,0,1-1.69,2.26,10.06,10.06,0,0,0-2.65,3.59c-.73,2.22.29,7.26-2.77,8A4.87,4.87,0,0,1,54,80.93c-1.91-1-2.72-5-3.1-6.68C49.71,69.08,53,64,54.87,59.34c.83-2.06,1.87-4,2.85-6,.07-.14.14-.28.2-.42a34.94,34.94,0,0,1,1.66-3.29,2.76,2.76,0,0,0-1.1,1.19A25.07,25.07,0,0,0,56.87,54a.08.08,0,0,0,0,0c-1.32,2.56-2.41,5.21-3.68,7.81-2.14,4.38-3.84,8.94-2.78,13.6-.33.72-.79,1.62-1.53,1.71a3.61,3.61,0,0,1-2-.6,8.69,8.69,0,0,1-3.1-2.77,17.78,17.78,0,0,1-1.5-2.39l.1.07A8.07,8.07,0,0,1,41.2,67c-.16-2,.3-4.12.22-6.15A16.42,16.42,0,0,0,45,59.08,10.58,10.58,0,0,0,47.9,57c1.77-2.06,3.42-6,.75-8.25-1.07-.88-3.27-.21-4.44-.13l-.34,0c.09-1.1,1.39-6.73,1.4-8l-.36.56c-.19,1.07-1.52,5.58-1.63,6.8a5.79,5.79,0,0,0-.34.71c-.11.26-1.78.14-2,.16-1.32.06-2.63.19-4,.26l-3.73.23a3.35,3.35,0,0,1-1.13.09,6.41,6.41,0,0,1-1.31.08c-.71.06-1.41.14-2.12.22a25.49,25.49,0,0,0-.19-3.1l-.24-3.89c-.1-.71-.2-1.41-.29-2.12a44.18,44.18,0,0,0-.86-6.49c-.17,2.23-.24,4.46-.19,6.68q.09.91.21,1.83c.19,1.33.3,2.67.51,4,0,.25.1.51.16.77.06.8.11,1.6.16,2.4a35.13,35.13,0,0,0-4.33.91,22,22,0,0,0-7.79,3.53c-.38.31-.74.63-1.14.92l-.14.12h0l-.11.08a59.08,59.08,0,0,1-3.07-11.19c-.27-.67-.56-1.34-.86-2,.11.56.24,1.09.31,1.49.28,1.65.49,3.31.83,5,.11.55.23,1.12.37,1.69a8,8,0,0,1-1.74-1.08C9.3,48.46,8.87,47.3,8,46.51l0,.28A11,11,0,0,0,10,50,3.42,3.42,0,0,0,12.14,51,16.79,16.79,0,0,0,14,55.69l-.77.64-.61.53C7.65,60.76,4.22,66,4.16,72.28l0,.49c.3-.87.65-1.72,1-2.58a22.09,22.09,0,0,1,1.46-5.3c1.67-3.73,4.83-6.47,8.07-8.82a28.53,28.53,0,0,1,9-4.74A34.75,34.75,0,0,1,28,50.47c0,.08.17.05.32,0l1.37-.18c3.13-.29,6.33-.37,9.49-.59,1.85-.13,3.67-.39,5.51-.53,2.31-.17,3.87-.41,4.45,2.31.49,2.27-1.47,5-3.26,6.42l-.34.26c-.09.06-.18.13-.27.18a23.76,23.76,0,0,1-6.2,2.52c-1.74.52-3.31.66-4.81,1.14a.14.14,0,0,0-.09,0h-.09a.21.21,0,0,0-.18.13,6.07,6.07,0,0,0-.7.29,7.64,7.64,0,0,0-1.57.82,16,16,0,0,0-3.18,2.91,6.36,6.36,0,0,0-1.8,4.15,5.9,5.9,0,0,0,1.73,3.31,24.09,24.09,0,0,1,2.95,2.85,27.73,27.73,0,0,1,4.3,7.88,33.44,33.44,0,0,1,1.86,10.83c0,.69,0,1.38.05,2.07.13-.41.25-.82.37-1.22a29.51,29.51,0,0,0-2-13.54,31.18,31.18,0,0,0-2.76-5.24,19.15,19.15,0,0,0-1.84-2.34c-.28-.31-1.64-1.9-1.94-1.81a1.8,1.8,0,0,0,.73-.41,5.81,5.81,0,0,0,1.65-2.18,2.6,2.6,0,0,1,.1.25,5.35,5.35,0,0,0,.76,1.36,5,5,0,0,0,1.32,1.53c1.43,1.09,3.13,2.39,5,1.59a4.58,4.58,0,0,0,2.59-3.87,14.07,14.07,0,0,0,1,1.89,9.57,9.57,0,0,0,3.84,4c1.95,1,3.49.56,4.2-1.09a14.48,14.48,0,0,0,.74,2A9.84,9.84,0,0,0,53,80.68c1.55,1.93,3.94,1.44,5.44.28.7-.54.71-1.58,1-2.39a14,14,0,0,0,.7-3,13.41,13.41,0,0,1,.6-3,9.13,9.13,0,0,1,1.46-2.28c.56-.67,1.3-1.23,1.82-1.92.17-.23.35-.46.51-.69a4.81,4.81,0,0,1,.41-.27c.37-.21.81-.31,1.2-.49a10.12,10.12,0,0,0,1.76-1c.28-.19.7-.44.66-.83C68.38,65.23,68.23,65.32,68.08,65.4ZM31.3,70c0,1-1.17,2.58-2.18,2.69l-.22,0-.22-.19a3.52,3.52,0,0,1-1.32-3.95l.15-.27a25.76,25.76,0,0,1,2.82-3.18,11.68,11.68,0,0,0,1.13,4.73A.35.35,0,0,0,31.3,70Zm5.59,4.66a5.5,5.5,0,0,1-2.51-1.41h.13c-.51,0-1.42-1.5-1.67-1.92a10.52,10.52,0,0,1-1.17-2.79,31.18,31.18,0,0,0-1.16-3.46s.12,0,.11-.07,0-.12,0-.18l.45-.42c2.44-2.07,5.94-2.08,8.91-3,.45-.14.9-.3,1.36-.47a21.63,21.63,0,0,0-.7,3.84A36.42,36.42,0,0,0,40.87,71C40.72,73.39,39.93,75.52,36.89,74.67Z" transform="translate(-2.36 -30.18)"/><path class="cls-3" d="M61.31,83.07c-1.55,1-3,2.14-4.44,3.2a12.62,12.62,0,0,1-9,1.79c-2-.29-5.53-2.79-7.19-.48-1.53,2.13-.89,6.7-.25,8.8,1,3.32,4,4.93,7.58,4.63A15.32,15.32,0,0,0,60,93c1.34-2.67,1.92-4.3,2.7-6.14C63.2,85.74,63.88,81.44,61.31,83.07Z" transform="translate(-2.36 -30.18)"/><g class="cls-7"><path class="cls-8" d="M14,43.64a21.43,21.43,0,0,0-1.08-3.9c0-.06-.16.07-.16.11a27.44,27.44,0,0,0,.37,4.34,32.41,32.41,0,0,0,2,5.5c0,.08.2,0,.18-.11C14.74,47.62,14.51,45.6,14,43.64Z" transform="translate(-2.36 -30.18)"/><path class="cls-8" d="M30.55,40a22.77,22.77,0,0,0-.11-4.05c0-.06-.18,0-.19.08a28.32,28.32,0,0,0-.69,4.3,33.58,33.58,0,0,0,.66,5.83c0,.08.21,0,.21-.07C30.36,44,30.62,42,30.55,40Z" transform="translate(-2.36 -30.18)"/><path class="cls-8" d="M8.58,41.31C8,43,7,44.54,6.31,46.26a51,51,0,0,0-1.66,5.4,38.83,38.83,0,0,0-.73,11c0,.1.25-.07.25-.16A63.08,63.08,0,0,1,5.69,51.19c.4-1.73.88-3.44,1.29-5.17s1.24-3.11,1.7-4.74C8.69,41.23,8.59,41.29,8.58,41.31Z" transform="translate(-2.36 -30.18)"/><path class="cls-8" d="M8.61,65c0-.06-.11,0-.12,0a18.41,18.41,0,0,0-1.74,6,25.11,25.11,0,0,0,.81,8.41,35.67,35.67,0,0,0,7.83,14.18s.17-.07.14-.11C10,85.56,5.65,74.78,8.61,65Z" transform="translate(-2.36 -30.18)"/><path class="cls-8" d="M49.89,41.85c-1.72,1-3.35,2.63-3.07,4.75,0,.13.25-.08.27-.13a14.69,14.69,0,0,1,2.84-4.57S50,41.82,49.89,41.85Z" transform="translate(-2.36 -30.18)"/><path class="cls-8" d="M59.71,53.39A31.73,31.73,0,0,0,54,66.26c0,.16.25,0,.28-.1.93-2.23,1.9-4.45,2.85-6.67a49.25,49.25,0,0,1,2.71-6.12C59.9,53.28,59.74,53.35,59.71,53.39Z" transform="translate(-2.36 -30.18)"/></g><path class="cls-9" d="M21.38,112.13s-2.75,2.92-2.92,9.25C18.46,121.38,22.21,128.3,21.38,112.13Z" transform="translate(-2.36 -30.18)"/><path class="cls-6" d="M33.43,130.11h0a57.2,57.2,0,0,1-12-1.07c-6.58-1.58-6.39-6.71-6.39-6.77l3.46-19.12a23.82,23.82,0,0,1-6.25-6.45A61.67,61.67,0,0,1,3.45,51.83C6.27,37.61,15.93,30.18,20.31,30.18A10.62,10.62,0,0,1,27,33a19.31,19.31,0,0,1,7.86-2,11,11,0,0,1,10.79,8.47,9.52,9.52,0,0,1,3.53-.65,11.39,11.39,0,0,1,3.68.63c4.44,1.52,6.9,6.8,7.19,9.68h.54a10.79,10.79,0,0,1,9.67,5.69c3.59,6.53-.51,23.78-3.81,31.6-2.27,5.38-5.7,12.15-12.15,16.86.76,13.78,1.76,19.88,1.77,20.27,0,2-2.91,3.75-3.24,3.94l-.1,0C46,129.78,37.74,130.11,33.43,130.11ZM20.31,31.18c-1.66,0-4.92,1.57-8.15,5A32,32,0,0,0,4.43,52a60.61,60.61,0,0,0,8.68,44.13,23,23,0,0,0,6.21,6.34.52.52,0,0,1,.22.45l-3.48,19.39c0,.17-.12,4.36,5.62,5.73a55.66,55.66,0,0,0,11.75,1.05c4.24,0,12.31-.32,18.93-2.52.79-.47,2.7-1.87,2.7-3,0-.38-1-7-1.79-20.5a.48.48,0,0,1,.21-.43c6.39-4.58,9.79-11.27,12-16.6,3.14-7.45,7.24-24.56,3.86-30.73a9.83,9.83,0,0,0-8.8-5.17,7.55,7.55,0,0,0-.94.05.48.48,0,0,1-.4-.12.49.49,0,0,1-.18-.37c0-2.39-2.3-7.83-6.53-9.28a10.29,10.29,0,0,0-3.36-.58,7.86,7.86,0,0,0-3.61.79.49.49,0,0,1-.44,0,.52.52,0,0,1-.29-.34c-1.13-4.36-4.16-7.41-8.11-8.13A10.24,10.24,0,0,0,34.85,32a18.89,18.89,0,0,0-7.72,2,.49.49,0,0,1-.59-.09A10,10,0,0,0,20.31,31.18Z" transform="translate(-2.36 -30.18)"/></g></g></svg>