<svg xmlns="http://www.w3.org/2000/svg" xmlns:xlink="http://www.w3.org/1999/xlink" viewBox="0 0 54.56 122.84"><defs><style>.cls-1{isolation:isolate;}.cls-2{fill:#e3c5af;}.cls-10,.cls-3{fill:#efd2b7;}.cls-4{fill:#dbab9b;opacity:0.3;}.cls-4,.cls-8{mix-blend-mode:multiply;}.cls-5,.cls-8{opacity:0.4;}.cls-10,.cls-5,.cls-6{mix-blend-mode:screen;}.cls-5{fill:url(#linear-gradient);}.cls-6{fill:#d49195;opacity:0.7;}.cls-7{fill:#ca7d5c;}.cls-8{fill:#e6b18e;}.cls-9{fill:#cb7e5c;}.cls-10{opacity:0.8;}</style><linearGradient id="linear-gradient" x1="22.08" y1="131.05" x2="41.42" y2="131.05" gradientUnits="userSpaceOnUse"><stop offset="0" stop-color="#efc4a4"/><stop offset="1" stop-color="#e6ad99"/></linearGradient></defs><title>scissors</title><g class="cls-1"><g id="Capa_1" data-name="Capa 1"><path class="cls-2" d="M23.52,115.45l-3,19s-.21,3.85,4.85,5.06,17.21,1.42,25.1-1.21c0,0,2.43-1.42,2.43-2.84,0,0-1.22-20.64-1.82-20.44S23.52,115.45,23.52,115.45Z" transform="translate(-11.44 -17.95)"/><path class="cls-3" d="M23.52,115.45l-3,19s-.21,3.85,4.85,5.06,17.21,1.42,25.1-1.21c0,0,2.43-1.42,2.43-2.84,0,0-1.22-20.64-1.82-20.44S23.52,115.45,23.52,115.45Z" transform="translate(-11.44 -17.95)"/><path class="cls-4" d="M51.05,115c-.43.14-13.79.28-21.74.36a10,10,0,0,0,4.61,5.71c2.92,1.6,6.17,1.79,9.35,2.45,5.57,1.16,4.56-15.13,4.8,12.21a5.05,5.05,0,0,1-1.81,3.61,34.46,34.46,0,0,0,4.18-1.06s2.43-1.42,2.43-2.84C52.87,135.48,51.65,114.84,51.05,115Z" transform="translate(-11.44 -17.95)"/><path class="cls-5" d="M36.66,125.23c3.24,0,4.18,3.51,4.18,3.51s1.08-4.73.27,3.64-14.43,5.94-14.43,5.94a5.14,5.14,0,0,1-4.59-5.4l2-5.53s-.06-4.19,2.1-3.92C28.22,123.73,36.66,125.23,36.66,125.23Z" transform="translate(-11.44 -17.95)"/><path class="cls-6" d="M25.19,126.24s-2.22,2.36-2.36,7.49C22.83,133.73,25.87,139.33,25.19,126.24Z" transform="translate(-11.44 -17.95)"/><path class="cls-3" d="M45.37,19.24c-3.66-2.51-9.29.2-10.66,10.06C33,41.6,27.82,75.44,27.82,75.44l14.5.5s.87-11,2-22.56S49,21.75,45.37,19.24Z" transform="translate(-11.44 -17.95)"/><path class="cls-3" d="M64.6,80a8.42,8.42,0,0,0-8.3-4.35c0-2.23-2-6.68-5.57-7.9a7.57,7.57,0,0,0-6,.21c-3.5.57-3-6.18-6.88-6.89-2.41-.44-5.59,3.16-7.63,5.91q0,.7-.12,1.41c-.12.93-.61,1.89-1.62,2-.63,0-1-.48-1.29-1.23-.79-7.56-2.49-24.52-3-35.19C23.58,22,17.78,19,14.14,22c-4.46,3.64-.94,22.14-.27,33.73a134.14,134.14,0,0,1-.37,19.89c-.16.62-.31,1.28-.44,2-2.33,11.74-1.69,25.3,5.29,35.92s20.85,9.31,20.85,9.31c14.47-.3,20.61-13,22.43-18.65S67.43,85.19,64.6,80Z" transform="translate(-11.44 -17.95)"/><path class="cls-7" d="M35,140.8h0a45.63,45.63,0,0,1-9.7-.88c-5.33-1.27-5.17-5.43-5.17-5.47l2.81-15.61A19.51,19.51,0,0,1,18,113.75c-8.38-12.76-7-28.17-5.35-36.23.14-.7.29-1.36.45-2a135.06,135.06,0,0,0,.35-19.76c-.16-2.88-.5-6.13-.86-9.58-1.1-10.63-2.23-21.62,1.28-24.49A4.85,4.85,0,0,1,17,20.53c3.2,0,7.11,3.51,7.61,13.4.53,10.33,2.12,26.42,3,35.12a1.35,1.35,0,0,0,.63.88c1.43-9.4,4.75-31.32,6-40.69C35.46,20.91,39.5,18,42.6,18a5.33,5.33,0,0,1,3,.95c2.86,2,1.84,12.13.09,26.28-.37,3-.72,5.79-1,8.24-.41,4.19-.84,8.87-1.28,13.9a1.57,1.57,0,0,0,1.18.28,7.21,7.21,0,0,1,3.25-.71,9.26,9.26,0,0,1,3,.51c3.59,1.23,5.58,5.5,5.81,7.84h.45A8.74,8.74,0,0,1,65,79.83C67,83.59,66,91.82,62,104.3c-.93,2.89-3.78,10.07-10.18,14.75.62,11.16,1.43,16.11,1.43,16.42,0,1.62-2.36,3-2.63,3.2l-.07,0C45.1,140.52,38.44,140.8,35,140.8ZM17,21.34a4.1,4.1,0,0,0-2.59,1c-3.17,2.6-2,13.86-1,23.78.36,3.46.69,6.73.86,9.62a134.23,134.23,0,0,1-.37,20c-.16.67-.31,1.32-.45,2-1.57,7.93-3,23.11,5.24,35.62a18.79,18.79,0,0,0,4.85,5,.42.42,0,0,1,.17.36L20.89,134.5c0,.13-.1,3.52,4.55,4.64A45.27,45.27,0,0,0,35,140c3.43,0,10-.27,15.32-2,.64-.39,2.19-1.52,2.19-2.47,0-.3-.82-5.65-1.45-16.6a.43.43,0,0,1,.17-.35c6.34-4.54,9.15-11.63,10.07-14.47,4.9-15.28,4.34-21.39,3-23.84A7.93,7.93,0,0,0,57.13,76a6.24,6.24,0,0,0-.77,0A.41.41,0,0,1,56,76a.39.39,0,0,1-.14-.3c0-1.94-1.87-6.34-5.3-7.51a8.15,8.15,0,0,0-2.72-.47,6.26,6.26,0,0,0-2.91.64l-.14,0a2.38,2.38,0,0,1-2.07-.58.4.4,0,0,1-.14-.34c.45-5.12.89-9.88,1.31-14.13.24-2.45.59-5.28,1-8.26,1.3-10.55,2.92-23.67.25-25.51a4.48,4.48,0,0,0-2.54-.81c-2.78,0-6.41,2.78-7.49,10.59C33.79,38.85,30.4,61.23,29,70.41a.4.4,0,0,1-.36.34l-.11,0h0c-.58,0-1.26-.26-1.68-1.49a.29.29,0,0,1,0-.09c-.91-8.71-2.51-24.85-3-35.22C23.34,25.24,20.05,21.34,17,21.34Z" transform="translate(-11.44 -17.95)"/><path class="cls-8" d="M64.6,80a8.42,8.42,0,0,0-8.3-4.35c0-2.23-2-6.68-5.57-7.9a7.57,7.57,0,0,0-6,.21A2,2,0,0,1,43,67.5c.35-4,.8-9,1.31-14.12,1.14-11.54,4.69-31.63,1-34.14s-9.29.2-10.66,10.06c-1.3,9.34-4.6,31.13-6.11,41.05l-.09,0c-.63,0-1-.48-1.29-1.23-.79-7.56-2.49-24.52-3-35.19C23.58,22,17.78,19,14.14,22c-4.46,3.64-.94,22.14-.27,33.73a134.14,134.14,0,0,1-.37,19.89c-.16.62-.31,1.28-.44,2-2.33,11.74-1.69,25.3,5.29,35.92s20.85,9.31,20.85,9.31c14.47-.3,20.61-13,22.43-18.65S67.43,85.19,64.6,80ZM43.33,70.11a.35.35,0,0,1,.32-.2c1.2-1.52,3-2.5,5-1.39,2.48,1.34,1.43,4.49,0,6.3-2,2.49-5,3-8,3.05C39.11,77.88,43,70.73,43.33,70.11ZM31.65,64.54c0-.7.08-1.37.12-2a.41.41,0,0,1,.11-.25c.26-2,.66-4,1-6.06.41-2.39.58-4.76.78-7.17a145.09,145.09,0,0,1,2.42-18.94c.3-1.39.9-5,2.24-7.23a7.4,7.4,0,0,1,.82-1.24C41,19.51,44,20.21,44.33,23.2,45,29,43.88,35.28,43.09,41.07c-.68,5-1.29,10-2.44,14.89a56.87,56.87,0,0,1-1.92,9.3c-.56,2-1.14,4-3.41,4.45-1.56.32-2.48-.14-3-1a.48.48,0,0,1-.11-.09C31.35,67.77,31.53,65.76,31.65,64.54ZM13.91,82.78c.46-2.44,1.33-4.83,1.55-7.31.09-1,.13-2,.18-3a3.63,3.63,0,0,1,0-.67c0-.5.05-1,.08-1.49-.08-2.12,0-4.28-.06-6.41-.2-7-.79-13.87-1.33-20.82-.29-3.69-.52-7.38-.78-11.07a21.47,21.47,0,0,1,.05-5.83c.42-2,2.56-5.38,4.82-2.94,1.9,2,2.22,5.4,2.5,8.06.43,4.07.86,8.12,1.34,12.19.73,6.32.89,12.7,1.72,19a35.07,35.07,0,0,1,.56,6.67A9.22,9.22,0,0,1,23,73.67a29.52,29.52,0,0,1,9.46-2.6c1.82-.24,4-.72,5.73,0,1.48.58.82,2.36-.06,3.19-2.16,2-5.1,1.54-7.76,2.28a23,23,0,0,0-5.11,2.11c-2.18,1.56-4.31,3.18-6.36,4.92-1.18,1.31-2.36,3.3-4,3.86C13,88.06,13.8,83.38,13.91,82.78ZM31.21,105c.79,2.62,2.19,7.31.72,9.94-2.46,4.4-8.06,1.75-10.24-.38-3.44-3.36-7.1-10-7.63-14.89-.51-4.62,1.87-9,4.94-12.29a36.49,36.49,0,0,1,2.94-2.76,24.62,24.62,0,0,1,4.8-3.23c4.5-2.2,10.39-1.5,15.32-1.44,1.26,0,4-.26,4.65,1.15s-.42,2.19-1.62,3.24c-3.45,3-8.44,2.66-12.24,5C26.78,93.15,29.58,99.6,31.21,105Zm6.12-12.87A3.29,3.29,0,0,1,37.84,91c.1-.21.19-.4.25-.57a.43.43,0,0,1,.56-.25,7.52,7.52,0,0,1,2.61-1.08c.77-.19,2.39-.83,3.16-.33,1,.65.55,1.54,0,2.42-1.19,2.07-3.68,4.9-6.45,4C36.53,94.74,36.82,93.39,37.33,92.14Zm14,23.84a20.4,20.4,0,0,1-4.14,3.1,12,12,0,0,1-4.57,1.61c-3.1.11-4.44-2.17-3.93-5.08.62-3.45,3-4.55,6.15-5.34a15.43,15.43,0,0,0,6.5-3c1-.85,3.32-5,4.38-2.45C57.29,108.71,53.9,113.48,51.31,116Zm10.53-29a.41.41,0,0,1-.67-.18,11.69,11.69,0,0,1-.57-3.26A31.48,31.48,0,0,1,55.84,90c-1.2,1.41-3.38,4.3-5.61,3.82S47,91.8,48,89.8a59.41,59.41,0,0,1,4-6.61c.75-1.26,1.48-2.52,2.29-3.74a8.58,8.58,0,0,1,2-2.62c1.52-.89,3.24,0,4.51,1C63.24,79.57,64.55,84.82,61.84,86.93Z" transform="translate(-11.44 -17.95)"/><path class="cls-8" d="M25.56,82c.39-.22.78-.44,1.18-.63A16,16,0,0,1,32.27,80a12.54,12.54,0,0,0-5.55,1.34C26.33,81.53,25.94,81.78,25.56,82Z" transform="translate(-11.44 -17.95)"/><path class="cls-8" d="M18.44,21.4c2.13,1.71,3,4.19,3.57,6.8.59,2.92,1,5.87,1.36,8.84.88,7.41,1.27,14.88,2.2,22.28.52,4.19,1.69,9.05-.11,13.05a12.53,12.53,0,0,1,5.62-1.89,7.2,7.2,0,0,1-2-3.42c-.18,1.2-.35,2.3-.5,3.29l-.09,0c-.63,0-1-.48-1.29-1.23-.79-7.56-2.49-24.52-3-35.19C23.77,25.7,20.87,21.73,17.92,21A5.41,5.41,0,0,1,18.44,21.4Z" transform="translate(-11.44 -17.95)"/><path class="cls-8" d="M42.59,71.15A13.1,13.1,0,0,1,45,67.88l-.22.11A2,2,0,0,1,43,67.5c.35-4,.8-9,1.31-14.12,1.14-11.54,4.69-31.63,1-34.14a4.93,4.93,0,0,0-2.1-.83c2,.93,2.6,2.89,2.64,5,.06,3.44-.61,6.88-.84,10.3-.57,8.58-2,17.07-2.94,25.61a53.61,53.61,0,0,0-.46,5.93c0,.78.16,2.16-.34,2.86A5.86,5.86,0,0,1,38.64,70a19.2,19.2,0,0,1,2.11.24.4.4,0,0,1,.28.5,14,14,0,0,1-2.69,4.65c-1.2,1.23-2.78,1.35-4.41,1.61-4.72.77-9.07,3.3-12.95,6a24.76,24.76,0,0,0-5.19,4.55c-.5.61-1.46,1.94-2.45,1.67a2.3,2.3,0,0,1-1.46-1.29,53.64,53.64,0,0,0,.59,9.88c1.32-5.11,5.2-9.78,8.79-13.18,2.8-2.65,5.65-4.88,9.59-5.3C33.28,79,35.72,79,38.17,79c.47-.22,1-.42,1.47-.6A32.69,32.69,0,0,1,42.59,71.15Z" transform="translate(-11.44 -17.95)"/><path class="cls-8" d="M65.46,83a7.58,7.58,0,0,1-4.67,6.11.42.42,0,0,1-.52-.39,10.65,10.65,0,0,1,0-1.13,10.48,10.48,0,0,1-3.71,4,21.39,21.39,0,0,0-4.44,3.58A11.88,11.88,0,0,1,48.59,98c-2.44,1-3.91-.83-3.16-3.23a26,26,0,0,1,3.67-7C50,86.23,51,84.7,52,83.19c.75-1.26,1.48-2.52,2.29-3.74a21,21,0,0,1,1.27-1.91,14.14,14.14,0,0,1,1.61-1.91,6.68,6.68,0,0,0-.88.05,9.83,9.83,0,0,0-4.63-7.48,10.22,10.22,0,0,1,.82,1.55,9.14,9.14,0,0,1,.39,7c-.89,2.24-2,2.42-4.14,1.79A14.82,14.82,0,0,0,40.4,79c.87,0,1.73,0,2.58-.08,2-.1,5.76-.36,5.72,2.5,0,2.57-3.36,4.68-5.37,5.51-4,1.65-8.8,2.16-11,6.41A14.15,14.15,0,0,0,31,96.86a3.74,3.74,0,0,0,0,.58c.15,1.88,1.06,3,2.08,4.52A18.88,18.88,0,0,1,36,108.79c.07.34.12.68.18,1a41.38,41.38,0,0,0-.44-4.21c-.52-3.43-2-6.84-.55-10.23.16-.39.75-.16.75.21,0,1.79.15,4,1.19,5.5,1.6,2.4,4.31,1.91,5.54-.55a.41.41,0,0,1,.74.1c.5,2.38,1.77,3.3,3.26,3.34,2.72-.28,5.49-4.33,7.1-6,1.46-1.47,4.83-4.27,5.54-.56a30.43,30.43,0,0,1-.53,11.83c-.17.76-.38,1.52-.6,2.28a32.78,32.78,0,0,0,3.47-7.38C63.17,99.4,66.23,89.19,65.46,83ZM42.29,97c-.7,1.34-2,3.18-3.79,2.6-1.44-.46-2-1.77-2.15-3.29a6.92,6.92,0,0,1,0-2.36c.17-1.06.3-2.68,1-3.53s2.51-1.08,3.71-1.49a21.28,21.28,0,0,1,5.2-1.34.41.41,0,0,1,.35.61C45,91,43.82,94.08,42.29,97Z" transform="translate(-11.44 -17.95)"/><path class="cls-9" d="M61.76,89.26a9.24,9.24,0,0,1-1.24.46s-.07,0-.11,0l0,0-1,.26a.82.82,0,0,0-.3.21l0,0a7,7,0,0,0,1.41-3.4c0-.21,0-.42-.05-.63a1.48,1.48,0,0,0-.23-.38,11.43,11.43,0,0,1-1.81,4.62l-.32.42c-1.22,1.05-2.51,2-3.68,3.15a30.2,30.2,0,0,0-3.76,5.13c-.28.41-.59.85-.92,1.28a3.16,3.16,0,0,1-.94,1.08,4,4,0,0,1-3.53,1.33c-2-.31-1.74-3.19-1.54-4.54.07-.46.17-.9.27-1.34a19.24,19.24,0,0,1,2.29-5.24c1.28-2,2.62-3.86,3.91-5.8s2.29-3.62,3.4-5.46c.25-.41.53-.84.81-1.28.35-.63.72-1.24,1.11-1.85a5,5,0,0,1,.8-1.16l.34-.44a.15.15,0,0,0-.13,0,2.2,2.2,0,0,0-1,.87A20.63,20.63,0,0,0,53.86,79s0,0,0,0C52.55,81,51.41,83,50.14,85c-.36.55-.7,1.11-1,1.67a34.32,34.32,0,0,0-4,6.23s0,0,0,0h0a9.14,9.14,0,0,0-.67,1.46A29.35,29.35,0,0,0,43.08,98c-.54,1.8-2.19,6-4.86,3.36a7.84,7.84,0,0,1-1.73-3.54,11.24,11.24,0,0,1,.09-4.51c.06-.36.57-2.36.78-3.59a7.25,7.25,0,0,1,2-.81c1.21-.28,2.41-.58,3.58-1,1.64-.51,3.54-1.14,4.63-2.54,1.29-1.66,3.38-4.29,1.42-6.3-1-1-2.91-.7-4.17-.62a36,36,0,0,1-5.29-.1h0a28.46,28.46,0,0,1,5.17-10.31l-.4.28A15,15,0,0,0,41.83,72c-1,1.91-2.39,4.26-2.7,6.45,0-.11-5.23,0-5.72,0a19.85,19.85,0,0,0-6.55,1.45c-2.88,1.29-5.19,3.71-7.44,5.85A28.25,28.25,0,0,0,15.89,90,35.55,35.55,0,0,1,13,94.12s0,0,0,0a13.87,13.87,0,0,0,1.49-1.9l3-3.86a29,29,0,0,1,9.22-7.93c3.36-1.63,7-1.53,10.64-1.41.81,0,1.63,0,2.44,0l1.46.07c.75,0,1.49,0,2.23,0,0,0,0,0,0,0,.74,0,1.48,0,2.21,0,1.88.07,3.15,0,3.38,2.25a5.1,5.1,0,0,1-1.84,3.8,14.84,14.84,0,0,1-4,2.17c-.61.18-1.23.32-1.85.44-.4.15-.81.27-1.21.38-.73.19-1.48.32-2.19.57a8.87,8.87,0,0,0-3.94,2.92,8.54,8.54,0,0,0-2.2,4.39,7.58,7.58,0,0,0,.33,3c.43,1.21,1.15,2.24,1.67,3.39a6.8,6.8,0,0,1,.31.86c1.88,4.5,2,9.41,1.5,14.18.12-.24.24-.49.35-.73a24.48,24.48,0,0,0-.34-11.63A25.53,25.53,0,0,0,34,100.7a13.09,13.09,0,0,1-1.5-3,5.19,5.19,0,0,1,.76-3.49c.24-.49.58-1.11,1-1.75a11.69,11.69,0,0,1,2.58-2.34,16.08,16.08,0,0,0-.65,8.71c.54,2,2.36,5,4.75,3.43a6,6,0,0,0,2.28-3.15c-.29,2.41.61,4.8,3.52,4.09a6,6,0,0,0,2.87-2c.25-.37.52-.72.8-1.06.51-.71,1-1.42,1.36-2a30.44,30.44,0,0,1,2.88-3.81,15,15,0,0,1,2.07-1.75c.48-.44,1-.85,1.5-1.25a4.67,4.67,0,0,1,1.33-.86,15.72,15.72,0,0,0,2-.71,2.64,2.64,0,0,0,.57-.4l.06-.22Z" transform="translate(-11.44 -17.95)"/><path class="cls-10" d="M15.92,46.22c-.24-4-.18-8-.59-12-.34-3.4-1.43-7.39.31-10.54,0-.07-.09,0-.11,0-1.67,2.52-1.68,5.16-1.41,8.14.4,4.39.77,8.77,1.06,13.17.55,8.3,1.35,16.55,1.55,24.87,0,0,.13,0,.13-.07C16.94,62,16.38,54.07,15.92,46.22Z" transform="translate(-11.44 -17.95)"/><path class="cls-10" d="M41.06,21.28c-4.38,3.75-4.2,11.16-5,16.36C35,44.81,34,52,33.3,59.19c0,.1.18,0,.19-.09.87-6.26,1.54-12.57,2.66-18.8.57-3.19,1.05-6.38,1.52-9.58s1.09-7.08,3.44-9.41C41.17,21.26,41.11,21.24,41.06,21.28Z" transform="translate(-11.44 -17.95)"/><path class="cls-10" d="M28.57,81.5A21.6,21.6,0,0,0,17.9,90.57a20.12,20.12,0,0,0-2.83,7.61c-.42,2.83.88,5.45,2,7.94,0,0,.15-.05.13-.09a16.64,16.64,0,0,1,.65-14.3c2.32-4.67,6.16-7.86,10.68-10.2C28.58,81.52,28.6,81.48,28.57,81.5Z" transform="translate(-11.44 -17.95)"/><path class="cls-10" d="M46.54,68.58c-1.06,0-1.72.83-2.43,1.54a9.37,9.37,0,0,0-2,4.49c0,.09.16,0,.18-.07,1-2.15,1.79-4.92,4.22-5.88C46.52,68.66,46.6,68.58,46.54,68.58Z" transform="translate(-11.44 -17.95)"/><path class="cls-10" d="M58.34,77.42c-1.85.3-2.94,1.85-4,3.25a51.49,51.49,0,0,0-4.36,7c-.05.09.11,0,.13,0,1.14-1.63,2.29-3.21,3.35-4.89,1.25-2,2.71-4.21,4.88-5.26C58.33,77.49,58.41,77.41,58.34,77.42Z" transform="translate(-11.44 -17.95)"/><path class="cls-10" d="M53.77,111.53a22.71,22.71,0,0,1-11.45,8.11c-.06,0-.31.26-.15.25,4.47-.33,9.59-4.55,11.66-8.37C53.86,111.48,53.78,111.52,53.77,111.53Z" transform="translate(-11.44 -17.95)"/></g></g></svg>