<?xml version="1.0" encoding="utf-8"?>
<!-- Generator: Adobe Illustrator 23.0.3, SVG Export Plug-In . SVG Version: 6.00 Build 0)  -->
<svg version="1.1" id="Capa_1" xmlns="http://www.w3.org/2000/svg" xmlns:xlink="http://www.w3.org/1999/xlink" x="0px" y="0px"
	 viewBox="0 0 103.2 103.2" style="enable-background:new 0 0 103.2 103.2;" xml:space="preserve">
<style type="text/css">
	.st0{fill:#E3C5AF;}
	.st1{fill:#EFD2B7;}
	.st2{opacity:0.3;fill:#DBAB9B;enable-background:new    ;}
	.st3{opacity:0.4;fill:url(#SVGID_1_);enable-background:new    ;}
	.st4{opacity:0.7;fill:#D49195;enable-background:new    ;}
	.st5{fill:#CA7D5C;}
	.st6{opacity:0.4;fill:#E6B18E;enable-background:new    ;}
	.st7{fill:#CB7E5C;}
	.st8{opacity:0.8;fill:#EFD2B7;enable-background:new    ;}
</style>
<title>scissors</title>
<g>
	<g>
		<path class="st0" d="M42,79.6l-2.4,15c0,0-0.2,3,3.8,4c4,1,13.6,1.1,19.8-1c0,0,1.9-1.1,1.9-2.2c0,0-1-16.3-1.4-16.2
			S42,79.6,42,79.6z"/>
		<path class="st1" d="M42,79.6l-2.4,15c0,0-0.2,3,3.8,4c4,1,13.6,1.1,19.8-1c0,0,1.9-1.1,1.9-2.2c0,0-1-16.3-1.4-16.2
			S42,79.6,42,79.6z"/>
		<path class="st2" d="M63.8,79.2c-0.3,0.1-10.9,0.2-17.2,0.3c0.6,1.9,1.9,3.5,3.6,4.5c2.3,1.3,4.9,1.4,7.4,1.9
			c4.4,0.9,3.6-12,3.8,9.6c-0.1,1.1-0.6,2.1-1.4,2.9c1.1-0.2,2.2-0.5,3.3-0.8c0,0,1.9-1.1,1.9-2.2C65.2,95.4,64.3,79.1,63.8,79.2z"
			/>
		
			<linearGradient id="SVGID_1_" gradientUnits="userSpaceOnUse" x1="52.3371" y1="-28.1924" x2="67.6117" y2="-28.1924" gradientTransform="matrix(1 0 0 -1 -11.44 63.7114)">
			<stop  offset="0" style="stop-color:#EFC4A4"/>
			<stop  offset="1" style="stop-color:#E6AD99"/>
		</linearGradient>
		<path class="st3" d="M52.4,87.3c2.6,0,3.3,2.8,3.3,2.8s0.9-3.7,0.2,2.9c-0.6,6.6-11.4,4.7-11.4,4.7c-2.2-0.2-3.7-2.1-3.6-4.3
			l1.6-4.4c0,0,0-3.3,1.7-3.1C45.7,86.1,52.4,87.3,52.4,87.3z"/>
		<path class="st4" d="M43.4,88.1c0,0-1.8,1.9-1.9,5.9C41.5,94,43.9,98.4,43.4,88.1z"/>
		<path class="st1" d="M59.3,3.5c-2.9-2-7.3,0.2-8.4,7.9C49.5,21.2,45.4,48,45.4,48l11.5,0.4c0,0,0.7-8.7,1.6-17.8
			C59.4,21.4,62.2,5.5,59.3,3.5z"/>
		<path class="st1" d="M74.5,51.6c-1.3-2.4-3.9-3.7-6.6-3.4c0-1.8-1.6-5.3-4.4-6.2c-1.5-0.6-3.3-0.5-4.7,0.2
			c-2.8,0.5-2.4-4.9-5.4-5.4c-1.9-0.3-4.4,2.5-6,4.7c0,0.4,0,0.7-0.1,1.1c-0.1,0.7-0.5,1.5-1.3,1.6c-0.5,0-0.8-0.4-1-1
			c-0.6-6-2-19.4-2.4-27.8c-0.5-9.5-5.1-11.8-7.9-9.5c-3.5,2.9-0.7,17.5-0.2,26.7c0.3,5.2,0.2,10.5-0.3,15.7c-0.1,0.5-0.2,1-0.3,1.6
			c-1.8,9.3-1.3,20,4.2,28.4s16.5,7.4,16.5,7.4c11.4-0.2,16.3-10.3,17.7-14.7C73.6,66.2,76.7,55.7,74.5,51.6z"/>
		<path class="st5" d="M51.1,99.6L51.1,99.6c-2.6,0-5.1-0.2-7.7-0.7c-4.2-1-4.1-4.3-4.1-4.3l2.2-12.3c-1.5-1.1-2.9-2.5-3.9-4
			C31,68.1,32.1,56,33.4,49.6c0.1-0.6,0.2-1.1,0.4-1.6c0.5-5.2,0.6-10.4,0.3-15.6c-0.1-2.3-0.4-4.8-0.7-7.6
			c-0.9-8.4-1.8-17.1,1-19.4c0.7-0.6,1.6-0.9,2.5-0.9c2.5,0,5.6,2.8,6,10.6c0.4,8.2,1.7,20.9,2.4,27.8c0.1,0.3,0.2,0.5,0.5,0.7
			c1.1-7.4,3.8-24.7,4.7-32.2c1-6.6,4.2-8.9,6.6-8.9c0.8,0,1.7,0.3,2.4,0.8c2.3,1.6,1.5,9.6,0.1,20.8c-0.3,2.4-0.6,4.6-0.8,6.5
			c-0.3,3.3-0.7,7-1,11c0.3,0.2,0.6,0.3,0.9,0.2c0.8-0.4,1.7-0.6,2.6-0.6c0.8,0,1.6,0.1,2.4,0.4c2.8,1,4.4,4.3,4.6,6.2h0.4
			c2.6-0.1,5,1.3,6.2,3.6c1.6,3,0.8,9.5-2.4,19.3c-0.7,2.3-3,8-8,11.7c0.5,8.8,1.1,12.7,1.1,13c0,1.3-1.9,2.4-2.1,2.5h-0.1
			C59.1,99.4,53.8,99.6,51.1,99.6z M36.9,5.2c-0.8,0-1.5,0.3-2,0.8c-2.5,2.1-1.6,11-0.8,18.8c0.3,2.7,0.5,5.3,0.7,7.6
			c0.3,5.3,0.2,10.6-0.3,15.8c-0.1,0.5-0.2,1-0.4,1.6C32.8,56,31.7,68,38.2,77.9c1,1.5,2.3,2.9,3.8,4c0.1,0.1,0.1,0.2,0.1,0.3
			L40,94.6c0,0.1-0.1,2.8,3.6,3.7c2.5,0.5,5,0.7,7.6,0.7c2.7,0,7.9-0.2,12.1-1.6c0.5-0.3,1.7-1.2,1.7-2c0-0.2-0.6-4.5-1.1-13.1
			c0-0.1,0-0.2,0.1-0.3c5-3.6,7.2-9.2,8-11.4c3.9-12.1,3.4-16.9,2.4-18.8c-1.1-2.1-3.3-3.4-5.7-3.4c-0.2,0-0.4,0-0.6,0
			c-0.1,0-0.2,0-0.3,0c-0.1-0.1-0.1-0.1-0.1-0.2c0-1.5-1.5-5-4.2-5.9c-0.7-0.2-1.4-0.4-2.1-0.4c-0.8,0-1.6,0.2-2.3,0.5h-0.1
			c-0.6,0.1-1.2-0.1-1.6-0.5c-0.1-0.1-0.1-0.2-0.1-0.3c0.4-4,0.7-7.8,1-11.2c0.2-1.9,0.5-4.2,0.8-6.5c1-8.3,2.3-18.7,0.2-20.2
			c-0.6-0.4-1.3-0.6-2-0.6c-2.2,0-5.1,2.2-5.9,8.4c-1,7.5-3.7,25.2-4.8,32.5c0,0.1-0.1,0.3-0.3,0.3H46l0,0c-0.5,0-1-0.2-1.3-1.2
			c0,0,0,0,0-0.1c-0.7-6.9-2-19.6-2.4-27.8C41.9,8.3,39.3,5.2,36.9,5.2z"/>
		<path class="st6" d="M74.5,51.6c-1.3-2.4-3.9-3.7-6.6-3.4c0-1.8-1.6-5.3-4.4-6.2c-1.5-0.6-3.3-0.5-4.7,0.2c-0.5,0.1-1,0-1.4-0.4
			c0.3-3.2,0.6-7.1,1-11.2c0.9-9.1,3.7-25,0.8-27s-7.3,0.2-8.4,7.9c-1,7.4-3.6,24.6-4.8,32.4h-0.1c-0.5,0-0.8-0.4-1-1
			c-0.6-6-2-19.4-2.4-27.8c-0.5-9.4-5-11.8-7.9-9.4c-3.5,2.9-0.7,17.5-0.2,26.7c0.3,5.2,0.2,10.5-0.3,15.7c-0.1,0.5-0.2,1-0.3,1.6
			c-1.8,9.3-1.3,20,4.2,28.4s16.5,7.4,16.5,7.4c11.4-0.2,16.3-10.3,17.7-14.7C73.6,66.2,76.7,55.7,74.5,51.6z M57.7,43.7
			c0-0.1,0.1-0.2,0.3-0.2c0.9-1.2,2.4-2,4-1.1c2,1.1,1.1,3.5,0,5c-1.6,2-4,2.4-6.3,2.4C54.4,49.9,57.4,44.2,57.7,43.7z M48.5,39.3
			c0-0.6,0.1-1.1,0.1-1.6c0-0.1,0-0.1,0.1-0.2c0.2-1.6,0.5-3.2,0.8-4.8c0.3-1.9,0.5-3.8,0.6-5.7c0.3-5,0.9-10,1.9-15
			c0.2-1.1,0.7-4,1.8-5.7c0.2-0.3,0.4-0.7,0.6-1c1.5-1.7,3.8-1.1,4.1,1.2c0.5,4.6-0.4,9.5-1,14.1c-0.5,4-1,7.9-1.9,11.8
			c-0.3,2.5-0.8,4.9-1.5,7.3c-0.4,1.6-0.9,3.2-2.7,3.5c-1.2,0.3-2-0.1-2.4-0.8c0,0-0.1,0-0.1-0.1C48.2,41.9,48.4,40.3,48.5,39.3z
			 M34.4,53.8c0.4-1.9,1.1-3.8,1.2-5.8c0.1-0.8,0.1-1.6,0.1-2.4c0-0.2,0-0.4,0-0.5c0-0.4,0-0.8,0.1-1.2c-0.1-1.7,0-3.4,0-5.1
			c-0.2-5.5-0.6-11-1.1-16.5c-0.2-2.9-0.4-5.8-0.6-8.7c-0.2-1.5-0.2-3.1,0-4.6c0.3-1.6,2-4.3,3.8-2.3c1.5,1.6,1.8,4.3,2,6.4
			c0.3,3.2,0.7,6.4,1.1,9.6c0.6,5,0.7,10,1.4,15c0.3,1.7,0.5,3.5,0.4,5.3c-0.1,1.3-0.5,2.5-1.2,3.6c2.4-1.1,4.9-1.8,7.5-2.1
			c1.4-0.2,3.2-0.6,4.5,0c1.2,0.5,0.6,1.9,0,2.5c-1.7,1.6-4,1.2-6.1,1.8c-1.4,0.4-2.8,1-4,1.7c-1.7,1.2-3.4,2.5-5,3.9
			c-0.9,1-1.9,2.6-3.2,3.1C33.7,57.9,34.4,54.2,34.4,53.8z M48.1,71.3c0.6,2.1,1.7,5.8,0.6,7.9c-1.9,3.5-6.4,1.4-8.1-0.3
			c-2.7-2.7-5.6-7.9-6-11.8c-0.4-3.7,1.5-7.1,3.9-9.7c0.7-0.8,1.5-1.5,2.3-2.2c1.2-1,2.4-1.9,3.8-2.6c3.6-1.7,8.2-1.2,12.1-1.1
			c1,0,3.2-0.2,3.7,0.9c0.5,1.1-0.3,1.7-1.3,2.6c-2.7,2.4-6.7,2.1-9.7,4C44.6,62,46.8,67,48.1,71.3z M52.9,61.1
			c0.1-0.3,0.2-0.6,0.4-0.9c0.1-0.2,0.2-0.3,0.2-0.5c0.1-0.2,0.3-0.3,0.4-0.2c0,0,0,0,0,0c0.6-0.4,1.3-0.7,2.1-0.9
			c0.6-0.2,1.9-0.7,2.5-0.3c0.8,0.5,0.4,1.2,0,1.9c-0.9,1.6-2.9,3.9-5.1,3.2C52.3,63.2,52.5,62.1,52.9,61.1L52.9,61.1z M64,80
			c-1,1-2.1,1.8-3.3,2.4c-1.1,0.7-2.3,1.1-3.6,1.3c-2.4,0.1-3.5-1.7-3.1-4c0.5-2.7,2.4-3.6,4.9-4.2c1.9-0.4,3.6-1.2,5.1-2.4
			c0.8-0.7,2.6-4,3.5-1.9C68.7,74.2,66,78,64,80L64,80z M72.3,57.1c-0.1,0.1-0.3,0.1-0.5,0c0,0-0.1-0.1-0.1-0.1
			c-0.3-0.8-0.4-1.7-0.5-2.6c-1,1.9-2.3,3.6-3.8,5.1c-0.9,1.1-2.7,3.4-4.4,3s-2.6-1.6-1.8-3.2c0.9-1.8,2-3.6,3.2-5.2
			c0.6-1,1.2-2,1.8-3c0.4-0.8,0.9-1.5,1.6-2.1c1.2-0.7,2.6,0,3.6,0.8C73.4,51.2,74.5,55.4,72.3,57.1L72.3,57.1z"/>
		<path class="st6" d="M43.6,53.1c0.3-0.2,0.6-0.3,0.9-0.5c1.4-0.6,2.9-1,4.4-1.1c-1.5,0-3,0.4-4.4,1.1C44.3,52.8,43.9,53,43.6,53.1
			z"/>
		<path class="st6" d="M38,5.3c1.7,1.4,2.4,3.3,2.8,5.4c0.5,2.3,0.8,4.6,1.1,7c0.7,5.9,1,11.8,1.7,17.6c0.4,3.3,1.3,7.2-0.1,10.3
			c1.3-0.8,2.9-1.4,4.4-1.5c-0.8-0.7-1.3-1.7-1.6-2.7c-0.1,0.9-0.3,1.8-0.4,2.6H46c-0.5,0-0.8-0.4-1-1c-0.6-6-2-19.4-2.4-27.8
			c-0.3-6.5-2.6-9.6-5-10.2C37.8,5,37.9,5.1,38,5.3z"/>
		<path class="st6" d="M57.1,44.6c0.5-1,1.1-1.8,1.9-2.6l-0.2,0.1c-0.5,0.1-1,0-1.4-0.4c0.3-3.2,0.6-7.1,1-11.2
			c0.9-9.1,3.7-25,0.8-27c-0.5-0.3-1.1-0.6-1.7-0.7c1.6,0.7,2.1,2.3,2.1,4c0,2.7-0.5,5.4-0.7,8.1c-0.5,6.8-1.6,13.5-2.3,20.2
			c-0.2,1.6-0.3,3.1-0.4,4.7c0,0.6,0.1,1.7-0.3,2.3c-0.5,0.7-1.3,1.2-2.1,1.5c0.6,0,1.1,0.1,1.7,0.2c0.2,0,0.3,0.2,0.2,0.4
			c0,0,0,0,0,0c-0.5,1.4-1.2,2.6-2.1,3.7c-0.9,1-2.2,1.1-3.5,1.3c-3.7,0.6-7.2,2.6-10.2,4.7c-1.5,1-2.9,2.2-4.1,3.6
			c-0.4,0.5-1.2,1.5-1.9,1.3c-0.5-0.2-0.9-0.5-1.2-1c-0.1,2.6,0.1,5.2,0.5,7.8c1-4,4.1-7.7,6.9-10.4c2.2-2.1,4.5-3.9,7.6-4.2
			c1.9-0.3,3.8-0.3,5.8-0.3c0.4-0.2,0.8-0.3,1.2-0.5C55.3,48.3,56.1,46.4,57.1,44.6z"/>
		<path class="st6" d="M75.2,53.9c-0.3,2.2-1.7,4-3.7,4.8c-0.2,0-0.4-0.1-0.4-0.2c0,0,0,0,0-0.1c0-0.3,0-0.6,0-0.9
			c-0.7,1.3-1.7,2.4-2.9,3.2c-1.3,0.8-2.5,1.7-3.5,2.8c-0.8,0.9-1.7,1.7-2.8,2.2c-1.9,0.8-3.1-0.7-2.5-2.6c0.7-2,1.7-3.8,2.9-5.5
			c0.7-1.2,1.5-2.4,2.3-3.6c0.6-1,1.2-2,1.8-3c0.3-0.5,0.6-1,1-1.5c0.4-0.5,0.8-1,1.3-1.5c-0.2,0-0.5,0-0.7,0
			c-0.2-2.4-1.6-4.6-3.7-5.9c0.3,0.4,0.5,0.8,0.6,1.2c0.8,1.7,0.9,3.7,0.3,5.5c-0.7,1.8-1.6,1.9-3.3,1.4c-2.2-0.5-4.5-0.4-6.6,0.4
			c0.7,0,1.4,0,2-0.1c1.6-0.1,4.6-0.3,4.5,2c0,2-2.7,3.7-4.2,4.4c-3.2,1.3-7,1.7-8.7,5.1c-0.5,0.9-0.8,1.8-1.1,2.8
			c0,0.2,0,0.3,0,0.5c0.1,1.5,0.8,2.4,1.6,3.6c1.1,1.6,1.9,3.5,2.3,5.4c0.1,0.3,0.1,0.5,0.1,0.8c-0.1-1.1-0.2-2.2-0.3-3.3
			c-0.4-2.7-1.6-5.4-0.4-8.1c0.1-0.3,0.6-0.1,0.6,0.2c0,1.4,0.1,3.2,0.9,4.3c1.3,1.9,3.4,1.5,4.4-0.4c0.1-0.2,0.3-0.2,0.4-0.1
			c0.1,0,0.1,0.1,0.1,0.2c0.4,1.9,1.4,2.6,2.6,2.6c2.1-0.2,4.3-3.4,5.6-4.7c1.2-1.2,3.8-3.4,4.4-0.4c0.5,3.1,0.3,6.3-0.4,9.3
			c-0.1,0.6-0.3,1.2-0.5,1.8c1.2-1.8,2.1-3.8,2.7-5.8C73.4,66.9,75.8,58.8,75.2,53.9z M56.9,65c-0.6,1.1-1.6,2.5-3,2.1
			c-1.1-0.4-1.6-1.4-1.7-2.6c-0.1-0.6-0.1-1.2,0-1.9c0.1-0.8,0.2-2.1,0.8-2.8c0.6-0.7,2-0.9,2.9-1.2c1.3-0.5,2.7-0.9,4.1-1.1
			c0.2,0,0.3,0.2,0.3,0.3c0,0.1,0,0.1,0,0.2C59,60.3,58.1,62.7,56.9,65z"/>
		<path class="st7" d="M72.3,58.9c-0.3,0.1-0.6,0.3-1,0.4c0,0-0.1,0-0.1,0l0,0l-0.8,0.2c-0.1,0-0.2,0.1-0.2,0.2l0,0
			c0.6-0.8,1-1.7,1.1-2.7c0-0.2,0-0.3,0-0.5c0-0.1-0.1-0.2-0.2-0.3c-0.2,1.3-0.7,2.6-1.4,3.7l-0.3,0.3c-1,0.8-2,1.6-2.9,2.5
			c-1.1,1.2-2.1,2.6-3,4.1c-0.2,0.3-0.5,0.7-0.7,1c-0.2,0.3-0.4,0.6-0.7,0.9c-0.7,0.8-1.7,1.2-2.8,1.1C57.6,69.3,57.9,67,58,66
			c0.1-0.4,0.1-0.7,0.2-1.1c0.4-1.5,1-2.9,1.8-4.1c1-1.6,2.1-3.1,3.1-4.6c1-1.5,1.8-2.9,2.7-4.3c0.2-0.3,0.4-0.7,0.6-1
			c0.3-0.5,0.6-1,0.9-1.5c0.2-0.3,0.4-0.6,0.6-0.9l0.3-0.3c0,0-0.1,0-0.1,0c-0.3,0.1-0.6,0.4-0.8,0.7c-0.5,0.6-0.9,1.3-1.3,1.9l0,0
			c-1,1.6-1.9,3.2-2.9,4.7c-0.3,0.4-0.6,0.9-0.8,1.3c-1.2,1.5-2.3,3.2-3.2,4.9l0,0l0,0c-0.2,0.4-0.4,0.8-0.5,1.2
			c-0.4,0.9-0.8,1.9-1.1,2.9c-0.4,1.4-1.7,4.7-3.8,2.7c-0.7-0.8-1.2-1.8-1.4-2.8c-0.2-1.2-0.2-2.4,0.1-3.6c0-0.3,0.5-1.9,0.6-2.8
			c0.5-0.3,1-0.5,1.6-0.6c1-0.2,1.9-0.5,2.8-0.8c1.3-0.4,2.8-0.9,3.7-2c1-1.3,2.7-3.4,1.1-5c-0.8-0.8-2.3-0.6-3.3-0.5
			c-1.4,0.1-2.8,0-4.2-0.1l0,0c0.8-3,2.2-5.7,4.1-8.1l-0.3,0.2c-0.8,0.9-1.4,1.8-2,2.9c-0.8,1.5-1.9,3.4-2.1,5.1c0-0.1-4.1,0-4.5,0
			c-1.8,0.1-3.5,0.5-5.2,1.1c-2.3,1-4.1,2.9-5.9,4.6c-1,1-2,2.2-2.8,3.4c-0.7,1.1-1.4,2.2-2.3,3.3l0,0c0.4-0.5,0.8-1,1.2-1.5
			l2.4-3.1c2-2.6,4.4-4.7,7.3-6.3c2.7-1.3,5.5-1.2,8.4-1.1c0.6,0,1.3,0,1.9,0l1.2,0.1c0.6,0,1.2,0,1.8,0l0,0c0.6,0,1.2,0,1.7,0
			c1.5,0.1,2.5,0,2.7,1.8c0,1.2-0.6,2.3-1.5,3c-1,0.7-2,1.3-3.2,1.7c-0.5,0.1-1,0.3-1.5,0.3c-0.3,0.1-0.6,0.2-1,0.3
			c-0.6,0.2-1.2,0.3-1.7,0.5c-1.2,0.5-2.3,1.3-3.1,2.3c-0.9,1-1.5,2.2-1.7,3.5c-0.1,0.8,0,1.6,0.3,2.4c0.3,1,0.9,1.8,1.3,2.7
			c0.1,0.2,0.2,0.4,0.2,0.7c1.5,3.6,1.6,7.4,1.2,11.2c0.1-0.2,0.2-0.4,0.3-0.6c0.7-3,0.6-6.2-0.3-9.2c-0.3-1.2-0.8-2.4-1.3-3.5
			c-0.5-0.7-0.9-1.5-1.2-2.4c-0.1-1,0.1-1.9,0.6-2.8c0.2-0.4,0.5-0.9,0.8-1.4c0.6-0.7,1.3-1.3,2-1.8c-0.8,2.2-1,4.6-0.5,6.9
			c0.4,1.6,1.9,4,3.8,2.7c0.9-0.6,1.5-1.5,1.8-2.5c-0.2,1.9,0.5,3.8,2.8,3.2c0.9-0.3,1.7-0.8,2.3-1.6c0.2-0.3,0.4-0.6,0.6-0.8
			c0.4-0.6,0.8-1.1,1.1-1.6c0.7-1.1,1.4-2.1,2.3-3c0.5-0.5,1-1,1.6-1.4c0.4-0.3,0.8-0.7,1.2-1c0.3-0.3,0.7-0.5,1.1-0.7
			c0.5-0.2,1.1-0.3,1.6-0.6c0.2-0.1,0.3-0.2,0.5-0.3l0-0.2L72.3,58.9z"/>
		<path class="st8" d="M36,24.9c-0.2-3.2-0.1-6.3-0.5-9.5c-0.3-2.7-1.1-5.8,0.2-8.3c0-0.1-0.1,0-0.1,0c-1.3,2-1.3,4.1-1.1,6.4
			c0.3,3.5,0.6,6.9,0.8,10.4c0.4,6.6,1.1,13.1,1.2,19.7c0,0,0.1,0,0.1-0.1C36.8,37.3,36.4,31.1,36,24.9z"/>
		<path class="st8" d="M55.9,5.2c-3.5,3-3.3,8.8-4,12.9c-0.8,5.7-1.6,11.3-2.2,17c0,0.1,0.1,0,0.2-0.1c0.7-4.9,1.2-9.9,2.1-14.9
			c0.5-2.5,0.8-5,1.2-7.6S54.1,7,55.9,5.2C56,5.1,55.9,5.1,55.9,5.2z"/>
		<path class="st8" d="M46,52.7c-3.5,1.4-6.5,3.9-8.4,7.2c-1.1,1.8-1.9,3.9-2.2,6c-0.3,2.2,0.7,4.3,1.6,6.3c0,0,0.1,0,0.1-0.1
			c-1.5-3.7-1.4-7.8,0.5-11.3C39.4,57.1,42.4,54.6,46,52.7C46,52.8,46,52.7,46,52.7z"/>
		<path class="st8" d="M60.2,42.5c-0.8,0-1.4,0.7-1.9,1.2c-0.8,1-1.4,2.2-1.6,3.5c0,0.1,0.1,0,0.1-0.1
			C57.7,45.5,58.3,43.4,60.2,42.5C60.2,42.6,60.3,42.5,60.2,42.5z"/>
		<path class="st8" d="M69.5,49.5c-1.5,0.2-2.3,1.5-3.2,2.6c-1.3,1.7-2.4,3.6-3.4,5.5c0,0.1,0.1,0,0.1,0c0.9-1.3,1.8-2.5,2.6-3.9
			C66.7,52.2,67.8,50.4,69.5,49.5C69.5,49.6,69.6,49.5,69.5,49.5z"/>
		<path class="st8" d="M65.9,76.5c-2.3,3-5.4,5.3-9,6.4c0,0-0.2,0.2-0.1,0.2C60.3,82.8,64.3,79.5,65.9,76.5
			C66,76.4,65.9,76.5,65.9,76.5z"/>
	</g>
</g>
</svg>
